<?xml version="1.0" encoding="UTF-8" standalone="no"?>
<!-- Created with Inkscape (http://www.inkscape.org/) -->

<svg
   width="506.15216mm"
   height="257.51669mm"
   viewBox="0 0 506.15216 257.51669"
   version="1.1"
   id="svg5"
   xml:space="preserve"
   xmlns:inkscape="http://www.inkscape.org/namespaces/inkscape"
   xmlns:sodipodi="http://sodipodi.sourceforge.net/DTD/sodipodi-0.dtd"
   xmlns="http://www.w3.org/2000/svg"
   xmlns:svg="http://www.w3.org/2000/svg"><sodipodi:namedview
     id="namedview7"
     pagecolor="#ffffff"
     bordercolor="#999999"
     borderopacity="1"
     inkscape:showpageshadow="0"
     inkscape:pageopacity="0"
     inkscape:pagecheckerboard="0"
     inkscape:deskcolor="#d1d1d1"
     inkscape:document-units="mm"
     showgrid="false" /><defs
     id="defs2" /><g
     id="g10313"
     transform="translate(-266.49799,-75.756422)"><path
       d="m 292.54732,331.92655 c 0.0234,0.0166 456.72337,-0.0534 456.72337,-0.0534 12.79127,-26.20701 20.12635,-54.84184 15.27805,-83.83404 -6.09354,-36.50965 -34.61233,-66.9405 -64.41503,-80.44649 -17.40195,-7.91902 -33.53104,-8.95057 -47.79964,-7.63903 -19.11139,1.75917 -34.84995,7.72008 -45.86732,7.00168 -6.75668,-0.4421 -12.26444,-4.54621 -18.18299,-10.59922 -7.8177,-7.99639 -16.25987,-19.26428 -29.26113,-30.07717 -9.42215,-7.83061 -21.21134,-15.37753 -36.80991,-21.15055 -0.009,-0.004 -0.0147,-0.006 -0.0221,-0.009 -35.88519,-13.275733 -93.84012,-16.005667 -130.35787,-0.80682 -9.34404,3.88675 -44.5484,21.2758 -54.87739,50.68983 -3.26248,9.28399 -4.04499,19.76532 -0.7558,31.39793 11.64146,41.16638 -6.08341,46.291 -28.26145,65.90894 -29.601,26.18122 -39.13238,61.50826 -15.39079,79.61757"
       style="opacity:0.28689;fill:#a7ae9c;fill-opacity:1;fill-rule:nonzero;stroke:none;stroke-width:0.0352779"
       id="path212" /><path
       d="m 742.30401,331.95418 h -10.84605 c -0.5821,-0.49183 0.40157,-1.61181 1.42944,-1.68733 0.44577,-0.0332 1.01129,0.0608 1.65601,0.19526 0.14921,-1.98206 1.00208,-10.89395 4.21279,-10.53475 3.61228,0.39973 0,3.92359 -1.0205,6.01065 -0.75709,1.54548 -1.5547,3.76148 -1.91943,4.80593 0.29473,0.0645 0.59683,0.1271 0.90814,0.18421 0.47893,-1.46997 2.26021,-6.4159 4.5241,-6.1267 2.65994,0.3371 1.59154,2.31916 -0.29473,3.49624 -1.38155,0.86576 -3.07993,2.09442 -3.88675,2.6894 0.68341,0.11237 1.39628,0.18605 2.12021,0.16947 1.85864,-0.0442 2.76494,0.50473 3.11677,0.79762"
       style="fill:#a8d29f;fill-opacity:1;fill-rule:nonzero;stroke:none;stroke-width:0.0352779"
       id="path214" /><path
       d="m 321.82135,331.09946 c -0.92637,-1.45523 -3.71396,-5.23145 -7.42682,-4.73225 -4.04535,0.54525 4.46792,3.21255 7.07425,4.7433 -0.57877,0.007 -1.0765,-0.0387 -1.44196,-0.16947 -1.74241,-0.62077 -4.72655,0.57104 -5.68074,0.98919 h 16.5885 c -0.11458,-0.39789 -0.41354,-1.04629 -1.1861,-1.51786 -0.27244,-0.16578 -0.8199,-0.18973 -1.5267,-0.13631 0.98642,-1.16234 1.6713,-4.87594 -1.07448,-3.91991 -2.006,0.69814 -2.00048,2.96756 -1.80356,4.31043 -0.4268,0.0663 -0.8595,0.13447 -1.28723,0.19525 -0.8258,-4.20911 -3.74694,-16.54539 -9.66787,-16.87512 -6.00236,-0.33341 5.08998,12.79496 8.78331,16.99302 -0.47322,0.0571 -0.92877,0.0995 -1.3506,0.11973"
       style="fill:#a8d29f;fill-opacity:1;fill-rule:nonzero;stroke:none;stroke-width:0.0352779"
       id="path216" /><path
       d="m 432.03462,201.59889 1.37418,-1.65786 c 0,0 1.0905,-3.92175 5.45434,-3.17939 0,0 1.77759,0.44209 1.05735,1.55285 -0.71841,1.11261 -0.6042,0.58209 -1.58417,2.17179 -0.98182,1.5897 -2.60652,2.58626 -3.95307,2.3431 l -1.50312,0.35184 -0.84551,-1.58233"
       style="fill:#ffb27d;fill-opacity:1;fill-rule:nonzero;stroke:none;stroke-width:0.0352779"
       id="path218" /><path
       d="m 434.20826,201.24153 c -0.91735,-1.24892 -1.17155,-1.3005 -1.17155,-1.3005 0,0 -13.54265,6.24643 -14.77204,6.91694 -3.23614,1.7647 -21.71348,0.87498 -21.71348,0.87498 l -2.55899,10.44449 c 0,0 23.01434,-1.6597 27.34705,-4.00464 5.1563,-2.79073 13.66293,-10.90132 13.66293,-10.90132 0,0 -0.0755,-1.04998 -0.79392,-2.02995"
       style="fill:#004857;fill-opacity:1;fill-rule:nonzero;stroke:none;stroke-width:0.0352779"
       id="path220" /><path
       d="m 497.72252,115.18781 -5.03804,53.56897 -5.80802,61.76615 c -1.20839,12.82995 -12.6918,22.33867 -25.52175,21.13212 -12.82996,-1.20839 -22.33683,-12.6918 -21.13028,-25.51991 l 3.34702,-35.6052 7.50272,-79.73177 c 1.20655,-12.826266 13.24442,-28.222212 26.07069,-27.015662 0,0 21.23712,4.470682 20.57766,31.405302"
       style="fill:#f7b284;fill-opacity:1;fill-rule:nonzero;stroke:none;stroke-width:0.0352779"
       id="path222" /><path
       d="m 456.40141,127.20357 c 0,0 8.14559,-11.3121 34.63995,-14.02545 0,0 -10.20501,15.49173 -34.63995,14.02545"
       style="fill:#e8a070;fill-opacity:1;fill-rule:nonzero;stroke:none;stroke-width:0.0352779"
       id="path224" /><path
       d="m 451.48126,148.25649 c 0,0 9.5824,-13.30705 40.75192,-16.50119 0,0 -12.00471,18.22535 -40.75192,16.50119"
       style="fill:#e8a070;fill-opacity:1;fill-rule:nonzero;stroke:none;stroke-width:0.0352779"
       id="path226" /><path
       d="m 449.58578,168.41232 c 0,0 9.5824,-13.30705 40.75192,-16.50119 0,0 -12.00471,18.22536 -40.75192,16.50119"
       style="fill:#e8a070;fill-opacity:1;fill-rule:nonzero;stroke:none;stroke-width:0.0352779"
       id="path228" /><path
       d="m 461.96259,107.72193 c 0,0 5.71223,-7.931912 24.28942,-9.834761 0,0 -7.15457,10.860791 -24.28942,9.834761"
       style="fill:#e8a070;fill-opacity:1;fill-rule:nonzero;stroke:none;stroke-width:0.0352779"
       id="path230" /><path
       d="m 492.68448,168.75678 -5.80802,61.76615 c -1.20839,12.82995 -12.6918,22.33867 -25.52175,21.13212 -12.82996,-1.20839 -22.33683,-12.6918 -21.13028,-25.51991 l 3.34702,-35.6052 c 3.36361,-2.99335 7.24667,-4.83909 11.67683,-4.6641 15.81778,0.6171 31.13451,-11.5184 37.4362,-17.10906"
       style="fill:#efa97a;fill-opacity:1;fill-rule:nonzero;stroke:none;stroke-width:0.0352779"
       id="path232" /><path
       d="m 512.739,155.13474 c -0.0129,0.24131 -0.0221,0.36657 -0.0221,0.36657 0,0 -0.0387,-0.12157 -0.11605,-0.35552 -0.62815,-1.93784 -3.69702,-11.49446 -6.48958,-22.13789 -3.86281,-14.72543 -7.19509,-31.52319 -2.80915,-33.076043 8.30954,-2.943614 9.84213,20.583193 9.86608,37.942773 0.0129,8.55269 -0.34078,15.60594 -0.4292,17.26011"
       style="fill:#a8d29f;fill-opacity:1;fill-rule:nonzero;stroke:none;stroke-width:0.0352779"
       id="path234" /><path
       d="m 520.86986,136.01599 c -3.00256,6.66273 -5.60908,12.26628 -7.10299,15.62252 -0.65209,1.46444 -1.0905,2.49968 -1.26181,3.00808 0.14552,-0.82892 0.53788,-3.05229 1.09787,-6.21879 0,-0.002 0,-0.002 0,-0.004 0.83998,-4.74515 2.05942,-11.59761 3.39676,-19.0377 3.24571,-18.08535 7.19693,-39.633782 8.1198,-42.71555 1.62839,-5.43408 9.12926,-17.002223 14.17835,-6.937202 3.27887,6.541159 -9.37794,36.203862 -18.42798,56.282332"
       style="fill:#a8d29f;fill-opacity:1;fill-rule:nonzero;stroke:none;stroke-width:0.0352779"
       id="path236" /><path
       d="m 521.4759,145.52102 c -3.10388,3.27519 -5.71223,5.93144 -7.1693,7.39956 -0.79762,0.80498 -1.24892,1.25261 -1.24892,1.25261 0,0 0.79393,-1.6947 2.14784,-4.40069 1.27839,-2.55678 3.05598,-6.01433 5.13382,-9.79792 6.80642,-12.4026 16.82723,-28.29958 23.0405,-27.3804 7.0901,1.04629 -10.65448,21.05292 -21.90394,32.92684"
       style="fill:#a8d29f;fill-opacity:1;fill-rule:nonzero;stroke:none;stroke-width:0.0352779"
       id="path238" /><path
       d="m 512.739,155.13474 c -0.0442,0.002 -0.0903,0.006 -0.13815,0.0111 -0.62815,-1.93784 -3.69702,-11.49446 -6.48958,-22.13789 1.30233,1.95075 3.65833,4.56832 7.05693,4.86673 0.0129,8.55269 -0.34078,15.60594 -0.4292,17.26011"
       style="fill:#82b378;fill-opacity:1;fill-rule:nonzero;stroke:none;stroke-width:0.0352779"
       id="path240" /><path
       d="m 520.86986,136.01599 c -3.00256,6.66273 -5.60908,12.26628 -7.10299,15.62252 -0.11421,-0.93761 -0.16394,-2.02258 -0.16394,-3.21071 0,-0.002 0,-0.002 0,-0.004 0.83998,-4.74515 2.05942,-11.59761 3.39676,-19.0377 0.5213,2.59731 1.60996,5.47461 3.87017,6.62958"
       style="fill:#82b378;fill-opacity:1;fill-rule:nonzero;stroke:none;stroke-width:0.0352779"
       id="path242" /><path
       d="m 521.4759,145.52102 c -3.10388,3.27519 -5.71223,5.93144 -7.1693,7.39956 0.13999,-0.84366 0.46788,-1.93969 0.89892,-3.14808 1.27839,-2.55678 3.05598,-6.01433 5.13382,-9.79792 0.0479,1.58601 0.27263,3.94938 1.13656,5.54644"
       style="fill:#82b378;fill-opacity:1;fill-rule:nonzero;stroke:none;stroke-width:0.0352779"
       id="path244" /><path
       d="m 512.50322,154.65212 c -0.0405,0.2321 -0.0608,0.35368 -0.0608,0.35368 -0.0313,-0.0166 -0.011,-0.13632 0.0608,-0.35368"
       style="fill:#a8d29f;fill-opacity:1;fill-rule:nonzero;stroke:none;stroke-width:0.0352779"
       id="path246" /><path
       d="m 516.6718,178.56576 c -5.20751,14.74938 -11.68972,30.83241 -11.68972,30.83241 l -14.64622,-4.38963 c 0,0 1.71495,-10.92526 4.23121,-23.08102 2.93624,-14.17282 6.96115,-30.0256 10.63422,-32.1937 1.67812,-0.99103 3.44834,-1.49944 5.19829,-1.62838 0.88235,-0.0663 1.76286,-0.0368 2.62126,0.0774 0.20447,0.0276 0.40525,0.059 0.60972,0.094 0.50657,0.0903 1.00761,0.20815 1.49391,0.35367 0.19157,0.0534 0.37946,0.11421 0.56551,0.18053 0.65025,0.2192 1.27655,0.48446 1.87338,0.7884 2.53467,1.28944 4.5241,3.25124 5.37697,5.3254 0.8713,2.111 -2.33389,12.49654 -6.26853,23.64101"
       style="fill:#ed7d2b;fill-opacity:1;fill-rule:nonzero;stroke:none;stroke-width:0.0352779"
       id="path248" /><path
       d="m 515.90182,192.74042 c -2.13126,11.96418 -1.45707,24.66335 2.00416,37.81935 0.57841,2.1939 2.09811,3.95306 4.06359,4.88515 0.8805,0.4163 1.84943,0.66682 2.8644,0.7184 2.21232,-0.32789 6.00144,-4.97541 7.76245,-10.46475 0.48446,-1.51049 0.81603,-3.08361 0.91919,-4.64936 0.80314,-12.23129 3.39123,-27.1925 8.09586,-35.32152 4.80962,-8.31322 11.45209,-18.38008 21.46001,-26.0799 0,0 0.002,-0.002 0.004,-0.004 0.96524,-0.75156 23.0976,-22.27973 23.0976,-22.27973 2.08706,-2.94914 -1.24155,-5.44513 -1.24155,-5.44513 0,0 -2.05205,2.39283 -8.62084,7.53955 -6.56879,5.14488 -19.82979,2.11469 -19.83347,2.11469 -3.75044,-1.08866 -7.90797,-0.32789 -11.0671,2.26757 -4.87594,4.00465 -11.255,10.13502 -16.94512,18.4593 -6.40301,9.36688 -10.63054,19.60874 -12.56286,30.44006"
       style="fill:#ffb93e;fill-opacity:1;fill-rule:nonzero;stroke:none;stroke-width:0.0352779"
       id="path250" /><path
       d="m 533.51561,221.04921 c 0.80314,-12.23129 3.39123,-27.1925 8.09586,-35.32152 4.80962,-8.31322 11.45209,-18.38008 21.46001,-26.0799 0,0 0.002,-0.002 0.004,-0.004 0.17131,-0.16395 6.76036,-6.65169 -2.10916,-10.40212 -8.67979,-3.66939 -36.1615,36.85964 -28.36958,76.45658 0.48446,-1.51049 0.81603,-3.08361 0.91919,-4.64936"
       style="fill:#ffa412;fill-opacity:1;fill-rule:nonzero;stroke:none;stroke-width:0.0352779"
       id="path252" /><path
       d="m 455.84695,183.08433 c -1.02971,1.61917 -2.29521,3.18677 -3.78728,4.65673 -5.65697,5.5704 -14.53386,9.70214 -25.96256,9.5953 0,0 -4.79765,-4.57384 -7.1238,-10.39291 l 0.002,-0.004 c -1.61309,-4.03596 -2.79072,-9.98029 -0.002,-14.39203 1.79748,-2.8423 4.10927,-4.18884 6.45218,-4.89804 3.98051,-1.21023 8.05147,-0.58577 9.82906,-2.35968 1.75548,-1.74627 4.25147,-3.25676 6.99246,-4.12437 0.44762,-0.14368 0.90077,-0.27078 1.36128,-0.37394 h 0.002 c 0.19157,-0.0461 0.37946,-0.0866 0.57288,-0.12526 0.004,-0.002 0.007,-0.002 0.0129,-0.002 4.22569,-0.82525 8.73874,-0.0166 11.87761,3.75043 0.72761,0.87314 1.38891,1.92864 1.95074,3.19782 2.01153,4.52042 1.14577,10.25291 -2.17731,15.47147"
       style="fill:#a8d29f;fill-opacity:1;fill-rule:nonzero;stroke:none;stroke-width:0.0352779"
       id="path254" /><path
       d="m 422.60806,171.89381 c 0,0 -3.77143,2.96019 -2.61572,6.23538 1.1557,3.27518 4.13616,1.76285 5.06861,-0.50657 0.93245,-2.26758 0.0263,-6.82852 -2.45289,-5.72881"
       style="fill:#d1f2c9;fill-opacity:1;fill-rule:nonzero;stroke:none;stroke-width:0.0352779"
       id="path256" /><path
       d="m 456.07352,164.41504 c 0.72761,0.87314 1.38891,1.93048 1.95074,3.19782 2.01153,4.52042 4.77278,16.50855 1.44971,21.72895 l -4.45779,4.07648 c -5.65513,5.57224 -17.49037,4.02491 -28.91852,3.91623 0,0 -4.79728,-4.572 -7.12417,-10.39291 l 0.002,-0.002 c 0,0 14.13708,5.59434 27.4515,-6.08249 6.04748,-5.30513 8.62821,-11.38394 9.64687,-16.44224"
       style="fill:#95c38b;fill-opacity:1;fill-rule:nonzero;stroke:none;stroke-width:0.0352779"
       id="path258" /><path
       d="m 434.5122,158.45229 c -2.33389,-1.38891 -4.69542,0.56367 -7.4364,1.63391 -2.74191,1.07392 -8.01702,1.05182 -8.01702,1.05182 0,0 2.16958,-3.1223 5.72568,-6.22617 3.55683,-3.10203 9.72774,3.54044 9.72774,3.54044"
       style="fill:#a8d29f;fill-opacity:1;fill-rule:nonzero;stroke:none;stroke-width:0.0352779"
       id="path260" /><path
       d="m 434.5122,158.45229 c -2.1939,-1.79969 -6.25012,-2.83124 -8.22849,-2.02258 -1.97948,0.81051 -7.22493,4.70831 -7.22493,4.70831 0,0 2.16958,-3.1223 5.72568,-6.22617 3.55683,-3.10203 9.72774,3.54044 9.72774,3.54044"
       style="fill:#82b378;fill-opacity:1;fill-rule:nonzero;stroke:none;stroke-width:0.0352779"
       id="path262" /><path
       d="m 435.25455,165.29002 c 1.75548,-1.74627 4.25147,-3.25676 6.99246,-4.12437 -4.66226,1.74627 -7.23193,7.65376 -9.00031,6.97036 -1.89732,-0.73683 -7.60347,-0.49552 -7.82121,-0.48631 3.98051,-1.21023 8.05147,-0.58577 9.82906,-2.35968"
       style="fill:#95c38b;fill-opacity:1;fill-rule:nonzero;stroke:none;stroke-width:0.0352779"
       id="path264" /><path
       d="m 444.18302,160.66645 c -0.14737,0.0424 -0.33526,0.0829 -0.57288,0.12526 0.19157,-0.0461 0.37946,-0.0866 0.57288,-0.12526"
       style="fill:#95c38b;fill-opacity:1;fill-rule:nonzero;stroke:none;stroke-width:0.0352779"
       id="path266" /><path
       d="m 433.57643,168.01627 v 0 c -1.49575,-3.30281 -0.68709,-7.39956 0.25236,-10.25475 0.74972,-2.27126 2.18653,-5.33829 2.89204,-6.79721 0.1492,-0.30762 0.59683,-0.2763 0.70367,0.0479 l 0.28367,0.86024 c 0.28552,0.86393 0.18052,1.80706 -0.2892,2.58257 -1.44418,2.38915 -4.34542,7.9706 -3.0394,12.56654 0.14736,0.51762 -0.53973,1.58602 -0.80314,0.99471"
       style="fill:#82b378;fill-opacity:1;fill-rule:nonzero;stroke:none;stroke-width:0.0352779"
       id="path268" /><path
       d="m 516.6718,178.56576 c -5.20751,14.74938 -11.68972,30.83241 -11.68972,30.83241 l -14.64622,-4.38963 c 0,0 1.71495,-10.92526 4.23121,-23.08102 l 0.006,-0.011 c 0,0 2.97308,6.67747 10.02081,6.53931 4.01753,-0.0792 8.74979,-5.3604 12.07839,-9.89002"
       style="fill:#db6f26;fill-opacity:1;fill-rule:nonzero;stroke:none;stroke-width:0.0352779"
       id="path270" /><path
       d="m 546.94239,187.65449 16.42197,116.98929 c 2.03732,14.50991 -9.22872,27.46881 -23.88048,27.46881 h -24.7444 c -12.49654,0 -22.22262,-10.84974 -20.86318,-23.27075 l 13.89835,-108.82712 39.16774,-12.36023"
       style="fill:#fcecdb;fill-opacity:1;fill-rule:nonzero;stroke:none;stroke-width:0.0352779"
       id="path272" /><path
       d="m 460.69157,187.65449 c 0,0 39.80694,13.5723 86.25082,0 l -13.68467,144.82836 h -86.66529 l 14.09914,-144.82836"
       style="fill:#fcecdb;fill-opacity:1;fill-rule:nonzero;stroke:none;stroke-width:0.0352779"
       id="path274" /><path
       d="m 460.69157,187.65449 16.42381,116.98929 c 2.03548,14.50991 -9.23056,27.46881 -23.88232,27.46881 h -24.7444 c -12.49507,0 -22.22244,-10.84974 -20.86355,-23.27075 l 11.76395,-121.18735 c 0,0 5.5026,3.98069 19.60119,3.98069 13.96282,0 21.70132,-3.98069 21.70132,-3.98069"
       style="fill:#f9ddbf;fill-opacity:1;fill-rule:nonzero;stroke:none;stroke-width:0.0352779"
       id="path276" /><path
       d="m 508.95909,236.48568 c -1.98574,0 -4.06174,-0.17315 -6.22432,-0.52314 -17.51248,-2.82573 -22.91156,-33.71893 -23.1326,-35.03232 l 3.47596,-0.58578 c 0,0 0,0 0,0 v 0 c 0.0184,0.105 1.32629,7.69245 4.57384,15.46779 2.89204,6.92062 7.95402,15.43095 15.64463,16.67065 8.7461,1.41286 15.84356,-0.33894 20.5224,-5.06382 5.54092,-5.59618 7.51008,-15.00175 5.54092,-26.48331 l 3.47412,-0.59683 c 2.16627,12.63469 -0.14552,23.1326 -6.51168,29.56139 -4.31042,4.35279 -10.24002,6.58537 -17.36327,6.58537"
       style="fill:#f9ddbf;fill-opacity:1;fill-rule:nonzero;stroke:none;stroke-width:0.0352779"
       id="path278" /><path
       d="m 478.5264,200.69628 c 0,-1.70207 1.37971,-3.08361 3.08361,-3.08361 1.70207,0 3.08361,1.38154 3.08361,3.08361 0,1.70206 -1.38154,3.08361 -3.08361,3.08361 -1.7039,0 -3.08361,-1.38155 -3.08361,-3.08361"
       style="fill:#f9ddbf;fill-opacity:1;fill-rule:nonzero;stroke:none;stroke-width:0.0352779"
       id="path280" /><path
       d="m 528.18284,200.69628 c 0,-1.70207 1.3797,-3.08361 3.08361,-3.08361 1.70207,0 3.08361,1.38154 3.08361,3.08361 0,1.70206 -1.38154,3.08361 -3.08361,3.08361 -1.70391,0 -3.08361,-1.38155 -3.08361,-3.08361"
       style="fill:#f9ddbf;fill-opacity:1;fill-rule:nonzero;stroke:none;stroke-width:0.0352779"
       id="path282" /><path
       d="m 386.44804,205.73431 c 0,0 4.06045,4.81699 9.23185,2.80178 0,0 1.11224,-2.69125 1.12808,-4.67331 0.002,-0.24499 0.005,-0.48078 0.008,-0.70735 0.0276,-2.23258 0.10298,-3.48518 0.10298,-3.48518 0,0 -10e-4,-0.002 -0.005,-0.002 -0.23523,-0.0976 -7.90502,-3.24756 -7.89858,-2.98598 0.13171,6.04196 -2.56764,9.05188 -2.56764,9.05188"
       style="fill:#552200;fill-opacity:1;fill-rule:nonzero;stroke:none;stroke-width:0.0352779"
       id="path296" /><path
       d="m 389.78567,198.12292 c 0.73977,1.37233 3.27739,4.05437 7.03077,5.03251 0.0276,-2.23258 0.10298,-3.48518 0.10298,-3.48518 0,0 -10e-4,-0.002 -0.005,-0.002 -0.21239,-0.0571 -7.34854,-1.9489 -7.12859,-1.54549"
       style="fill:#2b1100;fill-opacity:1;fill-rule:nonzero;stroke:none;stroke-width:0.0352779"
       id="path298" /><path
       d="m 398.52569,199.43815 c 0,0 -8.62526,2.02811 -9.80547,-3.3636 -1.18003,-5.38987 -3.08803,-8.759 2.36907,-10.28239 5.45692,-1.52338 6.98105,0.30026 7.81237,2.00232 0.83169,1.70391 1.83727,10.97684 -0.37597,11.64367"
       style="fill:#552200;fill-opacity:1;fill-rule:nonzero;stroke:none;stroke-width:0.0352779"
       id="path300" /><path
       d="m 389.01532,197.54267 c -0.11771,0.0755 -1.97377,0.64656 -5.48842,-6.35511 -0.55189,-1.09971 -0.92748,-3.47781 0.35864,-5.57776 1.28595,-2.10179 5.84634,-3.75412 9.63527,-4.47253 3.78894,-0.7184 4.69836,1.41286 5.59066,3.55518 0.93669,2.251 3.64157,4.10227 3.64157,4.10227 -3.26708,1.82548 -7.20228,-0.78472 -8.56577,-0.35552 -1.36331,0.4292 -1.84482,2.57705 -1.94687,3.26598 -0.10242,0.68893 -0.25973,1.26181 -1.97396,0.64656 -1.7144,-0.61525 -0.77532,2.42784 -0.50067,3.00993 0,0 0.23284,1.55101 -0.75045,2.181"
       style="fill:#000000;fill-opacity:1;fill-rule:nonzero;stroke:none;stroke-width:0.0352779"
       id="path302" /><path
       d="m 366.79619,331.97997 h -5.22261 c -1.09492,0 -2.3116,-1.09603 -2.61609,-3.10388 -0.3045,-2.00784 -2.55494,-3.10387 -3.04235,-4.74699 -0.48723,-1.64128 2.0084,-3.9549 2.0084,-3.9549 l 0.41722,-0.53604 0.43399,-0.55815 4.13709,0.97261 c 0,0 0.10223,0.9855 0.16597,2.23995 0.0442,0.90629 0.0685,1.95258 0.0169,2.87177 -0.12194,2.19021 0.61341,4.54989 2.55936,4.97541 1.94762,0.42735 1.14208,1.84022 1.14208,1.84022"
       style="fill:#004857;fill-opacity:1;fill-rule:nonzero;stroke:none;stroke-width:0.0352779"
       id="path304" /><path
       d="m 403.15461,331.97997 h -13.8442 c -0.13226,-0.0258 -0.23283,-0.0553 -0.2938,-0.0866 -0.92417,-0.46236 -0.63496,-4.00096 -0.52389,-5.09514 0.0214,-0.20079 0.0367,-0.32052 0.0367,-0.32052 0,0 4.8682,-3.89412 5.53797,-0.91182 0.0214,0.0921 0.0459,0.1842 0.0715,0.27447 v 0.002 c 0.84533,2.78888 4.62303,4.05622 6.80513,4.40805 1.66725,0.27262 2.09977,1.24339 2.21066,1.7297"
       style="fill:#004857;fill-opacity:1;fill-rule:nonzero;stroke:none;stroke-width:0.0352779"
       id="path306" /><path
       d="m 400.36444,252.14504 c 0,0 -0.73941,9.2232 -1.60831,20.31241 -1.18112,15.06069 -2.60135,33.56235 -2.7419,37.06779 -0.2426,6.08617 -1.21742,15.82146 -1.21742,15.82146 0,0 -2.31124,2.31179 -6.93702,1.33734 0,0 -4.12179,-13.89651 -5.29942,-28.60168 -0.0181,-0.24131 -0.0363,-0.48262 -0.0547,-0.72577 -1.09529,-14.96859 -2.79828,-46.48994 -2.79828,-46.48994 l 20.65706,1.27839"
       style="fill:#007989;fill-opacity:1;fill-rule:nonzero;stroke:none;stroke-width:0.0352779"
       id="path308" /><path
       d="m 400.36444,252.14504 c 0,0 -0.73941,9.2232 -1.60831,20.31241 l -16.19576,25.62491 c -0.0181,-0.24131 -0.0363,-0.48262 -0.0547,-0.72577 -1.09529,-14.96859 -2.79828,-46.48994 -2.79828,-46.48994 l 20.65706,1.27839"
       style="fill:#004857;fill-opacity:1;fill-rule:nonzero;stroke:none;stroke-width:0.0352779"
       id="path310" /><path
       d="m 396.98812,253.23923 c 0,0 -13.32602,33.40761 -22.08815,49.10566 -8.7625,15.69988 -11.50054,20.0803 -11.50054,20.0803 0,0 -5.02017,-2.00784 -5.47663,-3.37649 0,0 3.35089,-30.30743 9.21878,-37.69594 3.31589,-4.17595 7.21056,-16.70381 7.39329,-21.08423 0.18237,-4.38226 1.18648,-13.05284 1.18648,-13.05284 l 21.26677,6.02354"
       style="fill:#007989;fill-opacity:1;fill-rule:nonzero;stroke:none;stroke-width:0.0352779"
       id="path312" /><path
       d="m 403.17763,225.63778 c -0.0519,2.85704 -0.21773,6.06959 -0.44154,9.33004 -0.0138,0.19342 -0.0274,0.38684 -0.0413,0.58025 -0.14294,2.02074 -0.29823,4.04517 -0.47654,6.0217 -0.0715,0.79024 -0.14773,1.57312 -0.22694,2.3431 l -0.0122,0.10316 c -0.006,0.28736 -0.0411,0.60051 -0.0731,0.88419 -0.72762,7.39771 -1.4906,13.24073 -1.63225,13.33099 -0.16892,0.11237 -0.35939,0.16947 -0.56809,0.14552 -1.93969,-0.24499 -7.72763,0.19526 -12.46597,-0.83445 -3.99837,-0.84366 -7.44155,-2.44257 -11.08957,-4.59963 -0.48428,-0.28552 -1.58823,-1.04444 -1.49833,-1.60996 0.0882,-0.62261 0.25125,-1.52338 0.45812,-2.65441 0.71877,-3.93464 1.95995,-10.70237 2.38325,-18.62323 0.082,-1.47549 0.20245,-2.93257 0.35773,-4.36569 0.40636,-3.73201 1.05827,-7.27798 1.93232,-10.42606 1.6247,-5.85039 4.89344,-10.22344 7.88863,-11.97524 0.39107,-0.21921 1.64588,0.68524 3.57949,1.92679 1.78625,1.14577 3.48168,1.22129 5.2998,0.55446 l 1.77519,2.8552 c 1.9489,2.26573 4.02454,5.28119 4.59097,9.56951 0.0426,0.31683 0.079,0.65393 0.10942,1.01129 0.15676,1.74627 0.19489,3.95674 0.15086,6.43247"
       style="fill:#007989;fill-opacity:1;fill-rule:nonzero;stroke:none;stroke-width:0.0352779"
       id="path314" /><path
       d="m 403.17763,225.63778 c -0.0519,2.85704 -0.21773,6.06959 -0.44154,9.33004 -0.0138,0.19342 -0.0274,0.38684 -0.0413,0.58025 -11.08055,-6.93536 -12.78722,-19.62716 -12.78722,-19.62716 5.45103,0.23947 9.78153,1.49207 13.11916,3.2844 0.15676,1.74627 0.19489,3.95674 0.15086,6.43247"
       style="fill:#004857;fill-opacity:1;fill-rule:nonzero;stroke:none;stroke-width:0.0352779"
       id="path316" /><path
       d="m 437.62344,212.22942 c 0.17131,-0.34631 0.14552,-0.7184 0.31131,-1.38523 0.16762,-0.66682 0.26525,-2.01706 0.51762,-1.98942 0.25052,0.0295 0.4734,0.47525 0.41814,0.83813 -0.0368,0.22842 0.0368,0.69446 0.13816,1.02787 0.60419,-0.36841 1.57864,-1.17339 1.94337,-1.68917 1.46812,-2.08153 2.30442,-2.45362 2.69494,-0.4642 0.21552,1.09787 0.0958,2.43152 -0.62262,4.02491 -0.90077,1.99863 -2.5752,2.25836 -4.18148,2.48125 -0.44209,0.0608 -1.56575,0.84735 -1.56575,0.84735 l -1.79048,-2.4831 c 0,0 1.88811,-0.69814 2.13679,-1.20839"
       style="fill:#552200;fill-opacity:1;fill-rule:nonzero;stroke:none;stroke-width:0.0352779"
       id="path318" /><path
       d="m 437.89238,213.98491 c -0.57104,-1.54549 -1.45891,-1.44418 -1.45891,-1.44418 0,0 -16.47503,4.10595 -17.95328,4.28279 -1.47844,0.175 -17.74126,-6.35142 -17.74126,-6.35142 0,0 -6.40098,-2.87178 -9.3993,-0.24868 -2.6056,2.27863 -2.72423,5.16698 -2.1145,7.59113 0.72651,2.89019 3.17184,5.02514 6.12761,5.40092 6.63455,0.84551 19.87197,2.43521 22.64667,2.05022 6.17496,-0.86025 20.16744,-8.93768 20.16744,-8.93768 0,0 0.17499,-1.12919 -0.27447,-2.3431"
       style="fill:#007989;fill-opacity:1;fill-rule:nonzero;stroke:none;stroke-width:0.0352779"
       id="path320" /><path
       d="m 576.7441,264.04752 5.67907,2.90125 1.13839,-3.94017 c 0,0 -0.72393,-1.36312 -1.04997,-3.5957 -0.13815,-0.93945 -0.20447,-2.03179 -0.11789,-3.24387 l -4.62726,2.36889 c 0,0 0.11052,0.4292 0.18421,1.05918 0.0792,0.68341 0.1142,1.6026 -0.0792,2.47758 -0.16763,0.74972 -0.50288,1.46628 -1.12734,1.97284"
       style="fill:#552200;fill-opacity:1;fill-rule:nonzero;stroke:none;stroke-width:0.0352779"
       id="path322" /><path
       d="m 586.8828,264.84882 c 0,0 5.24066,-6.78615 7.79192,-8.89347 0,0 3.48886,-8.60242 3.77254,-9.16978 0.28368,-0.56551 2.09442,0.47341 2.09442,0.47341 0,0 -1.28207,8.36296 -2.6323,10.84053 -1.35208,2.47941 -5.54276,10.8 -8.50111,11.10763 -2.95651,0.30946 -2.52547,-4.35832 -2.52547,-4.35832"
       style="fill:#552200;fill-opacity:1;fill-rule:nonzero;stroke:none;stroke-width:0.0352779"
       id="path324" /><path
       d="m 591.54506,326.72365 c 0,0 0.11605,1.29313 -0.83814,2.23626 -0.60235,0.59315 -0.97077,1.3355 -1.0205,2.07969 -0.0424,0.62998 0.64472,1.0426 1.17892,0.70551 l 5.62565,-3.56071 c 0.48078,-0.30209 0.59314,-0.95234 0.24315,-1.39812 -0.30578,-0.39052 -0.65761,-0.84919 -0.91182,-1.20839 -0.55446,-0.78656 -1.78311,-0.92656 -1.78311,-0.92656 l -2.49415,2.07232"
       style="fill:#004857;fill-opacity:1;fill-rule:nonzero;stroke:none;stroke-width:0.0352779"
       id="path326" /><path
       d="m 575.85622,322.05587 c 0,0 0.58394,1.1605 0.0405,2.38731 -0.34262,0.77366 -0.41262,1.59891 -0.18605,2.30994 0.19157,0.60051 0.98182,0.73314 1.35392,0.22473 l 3.93095,-5.37697 c 0.33342,-0.45683 0.19895,-1.1034 -0.2892,-1.39076 -0.42736,-0.25052 -0.92103,-0.54709 -1.29128,-0.7884 -0.80499,-0.52867 -1.99864,-0.20815 -1.99864,-0.20815 l -1.56023,2.8423"
       style="fill:#004857;fill-opacity:1;fill-rule:nonzero;stroke:none;stroke-width:0.0352779"
       id="path328" /><path
       d="m 566.13014,310.39746 c 0.83445,3.10388 9.30609,13.12653 9.30609,13.12653 0,0 3.93833,-2.62494 3.93833,-4.65489 0,0 -4.29569,-8.94873 -4.29569,-10.02265 0,-0.25421 0.58025,-1.27839 1.46076,-2.70599 1.51786,-2.46099 3.92543,-6.13038 5.78775,-9.15136 1.59891,-2.59546 2.79073,-4.71199 2.66547,-5.17435 -0.35736,-1.31339 -12.4947,-3.6086 -12.4947,-3.6086 0,0 -7.20246,19.08928 -6.36801,22.19131"
       style="fill:#007989;fill-opacity:1;fill-rule:nonzero;stroke:none;stroke-width:0.0352779"
       id="path330" /><path
       d="m 576.53963,306.14046 c 1.51786,-2.46099 3.92543,-6.13038 5.78775,-9.15136 -0.22657,-3.78543 -1.29681,-7.09562 -3.32492,-7.09562 -5.06935,0 -4.30121,0.38499 -4.30121,0.38499 0,0 -1.31155,11.19605 1.83838,15.86199"
       style="fill:#004857;fill-opacity:1;fill-rule:nonzero;stroke:none;stroke-width:0.0352779"
       id="path332" /><path
       d="m 580.31954,290.66162 c 0,0 -1.10708,20.81529 0.63735,23.42549 1.74259,2.61204 9.41293,13.67178 9.41293,13.67178 0,0 5.99959,-1.53628 5.68276,-3.38018 0,0 -6.45458,-12.45418 -6.44721,-14.14519 0.007,-1.68917 3.06887,-16.95986 -0.15842,-19.5719 -3.22545,-2.6102 -9.12741,0 -9.12741,0"
       style="fill:#007989;fill-opacity:1;fill-rule:nonzero;stroke:none;stroke-width:0.0352779"
       id="path334" /><path
       d="m 576.34069,265.44381 c 0,0 -7.56166,-6.74379 -8.02402,-7.67035 -0.46052,-0.92839 -2.60652,-9.21214 -2.60652,-9.21214 l -1.80153,0.2192 c 0,0 0.34446,9.93608 1.10339,11.87024 0.75893,1.93601 9.66529,10.16634 9.66529,10.16634 l 1.66339,-5.37329"
       style="fill:#552200;fill-opacity:1;fill-rule:nonzero;stroke:none;stroke-width:0.0352779"
       id="path336" /><path
       d="m 572.02474,269.05056 c -0.0313,-0.47341 -2.87362,-2.39284 -2.87362,-2.39284 -0.59867,-3.59201 1.68549,-6.17643 1.68549,-6.17643 l 3.42439,2.43521 c 0.6613,0.0405 0.94498,0.28183 0.94498,0.28183 0.56735,-0.15289 2.2602,-0.0239 2.2602,-0.0239 -0.0258,0.81603 0.18974,1.58417 1.62286,1.77206 1.90469,0.24868 3.61044,-1.05182 4.47252,-1.93601 0,0 1.15498,-0.10131 2.60284,0.3721 0,0 0.70182,-0.3592 1.4497,-0.38131 l 2.80362,-2.51994 c 0,0 3.28255,0.94867 3.80201,5.89644 0,0 -3.68781,2.8073 -3.95306,5.0233 v 0 l -0.10132,0.83998 -0.35736,2.97677 -0.62998,5.2204 1.87337,10.39659 c 0.0166,0.0921 0.024,0.18237 0.024,0.27263 0,0.69446 -0.47525,1.32076 -1.17339,1.48839 0,0 -0.16026,0.0258 -0.45683,0.0682 -1.98574,0.27815 -10.04292,1.23971 -16.35935,-0.47525 -1.42023,-0.38683 -2.35599,-1.74259 -2.2381,-3.21071 l 1.33549,-16.77381 v 0 c 0,0 -0.12526,-2.68204 -0.15841,-3.15361"
       style="fill:#ffc183;fill-opacity:1;fill-rule:nonzero;stroke:none;stroke-width:0.0352779"
       id="path338" /><path
       d="m 586.88833,284.81308 c 0.12526,3.62702 0.48077,6.70142 2.55678,7.85086 0.29657,-0.0424 0.45683,-0.0682 0.45683,-0.0682 0.69814,-0.16763 1.17339,-0.79393 1.17339,-1.48839 0,-0.0903 -0.007,-0.18052 -0.024,-0.27263 l -1.87337,-10.39659 0.62998,-5.2204 c -0.0313,-0.0921 -0.0461,-0.13999 -0.0461,-0.13999 0,0 -3.03203,5.08961 -2.87361,9.73529"
       style="fill:#db8b51;fill-opacity:1;fill-rule:nonzero;stroke:none;stroke-width:0.0352779"
       id="path340" /><path
       d="m 577.87144,262.07468 c 2.63046,-0.0718 4.64015,-2.66178 4.64015,-2.66178 l -4.56094,0.1842 c 0.0792,0.68341 0.1142,1.6026 -0.0792,2.47758"
       style="fill:#2b1100;fill-opacity:1;fill-rule:nonzero;stroke:none;stroke-width:0.0352779"
       id="path342" /><path
       d="m 576.59489,260.6084 c 0,0 5.24803,1.38523 7.05878,-2.78888 1.95442,-4.50384 -0.18973,-7.78455 -1.97285,-8.0056 -3.55334,-0.4421 -5.61829,0.91366 -6.24274,2.34494 -0.62446,1.43313 -1.73891,7.71087 1.15681,8.44954"
       style="fill:#552200;fill-opacity:1;fill-rule:nonzero;stroke:none;stroke-width:0.0352779"
       id="path344" /><path
       d="m 578.67458,258.25793 c 0,0 -0.21921,0.54156 -1.60444,0.23762 0,0 -1.16234,-0.2542 -1.02971,-0.86577 0,0 1.20655,-0.26341 2.63415,0.62815"
       style="fill:#ffffff;fill-opacity:1;fill-rule:nonzero;stroke:none;stroke-width:0.0352779"
       id="path346" /><path
       d="m 582.71606,259.28027 c 0,0 0.61525,-1.80706 0.54156,-2.77046 0,0 1.3705,-1.74627 0.57289,-2.17916 -0.79946,-0.43104 -1.22866,0.60236 -1.41287,0.39789 -0.18236,-0.20263 -0.46788,-3.63439 -1.4368,-3.52571 -0.96893,0.10868 -4.55358,1.21945 -6.1267,-0.13631 -1.57128,-1.35391 2.24179,-6.64984 8.70374,-4.60515 6.46195,2.04653 5.14303,9.23057 -0.84182,12.8189"
       style="fill:#000000;fill-opacity:1;fill-rule:nonzero;stroke:none;stroke-width:0.0352779"
       id="path348" /><path
       d="m 586.74649,249.27972 c 0,0 0.29289,-0.87314 -0.0221,-1.49759 0,0 -0.0147,0.86024 -0.35183,1.24154 -0.3371,0.38315 0.37394,0.25605 0.37394,0.25605"
       style="fill:#2c3a64;fill-opacity:1;fill-rule:nonzero;stroke:none;stroke-width:0.0352779"
       id="path350" /><path
       d="m 586.61202,248.66816 c 0,0 0.79945,-0.0903 1.17707,0.52498 0,0 -0.56367,-0.3813 -1.13286,0.0221 l -0.0442,-0.54709"
       style="fill:#2c3a64;fill-opacity:1;fill-rule:nonzero;stroke:none;stroke-width:0.0352779"
       id="path352" /><path
       d="m 565.71015,248.56132 c 0,0 -0.035,-0.78104 0.21736,-1.43865 0.25237,-0.65578 0.10316,-2.36337 -0.2192,-2.26758 -0.32236,0.0958 -0.17684,0.70919 -0.53788,0.63735 -0.36105,-0.0718 -0.93761,-2.05574 -1.40549,-1.87521 -0.46973,0.18052 -0.81051,0.84734 -0.66683,2.28968 0.14552,1.44233 0.81051,2.87361 0.81051,2.87361 l 1.80153,-0.2192"
       style="fill:#552200;fill-opacity:1;fill-rule:nonzero;stroke:none;stroke-width:0.0352779"
       id="path354" /><path
       d="m 598.48594,246.77268 c 0,0 0.19158,-0.8584 0.0368,-1.63575 -0.15289,-0.77735 0.34079,-2.63968 0.67972,-2.47021 0.33894,0.16763 0.0608,0.81972 0.47341,0.80867 0.41447,-0.0111 1.43497,-2.09627 1.91943,-1.80707 0.48446,0.28921 0.73498,1.09419 0.29657,2.66547 -0.43656,1.57128 -1.45154,3.02835 -1.45154,3.02835 l -1.95443,-0.58946"
       style="fill:#552200;fill-opacity:1;fill-rule:nonzero;stroke:none;stroke-width:0.0352779"
       id="path356" /><path
       d="m 613.625,211.16287 c -0.49736,0.87866 -0.24131,17.52168 -0.73314,18.92349 -1.57128,4.47253 -0.3942,15.89146 -1.23787,16.96722 -0.8455,1.07393 -1.76653,3.37834 -1.30602,4.45411 0.46052,1.07392 0.60236,2.45362 1.64496,2.41678 1.04261,-0.0368 7.21535,-36.74175 7.28351,-37.69593 0.07,-0.95419 -5.65144,-5.06567 -5.65144,-5.06567"
       style="fill:#552200;fill-opacity:1;fill-rule:nonzero;stroke:none;stroke-width:0.0352779"
       id="path358" /><path
       d="m 639.73805,237.42697 c 0,0 1.33181,1.6376 1.2305,2.40574 -0.10315,0.76814 -1.2305,2.61204 -1.2305,2.61204 0,0 -2.86624,-5.78592 -2.66177,-6.24643 0.20447,-0.46236 1.94521,-0.81972 1.94521,-0.81972 l 0.71656,2.04837"
       style="fill:#552200;fill-opacity:1;fill-rule:nonzero;stroke:none;stroke-width:0.0352779"
       id="path360" /><path
       d="m 607.96434,327.61612 2.75204,1.02603 c 0,0 11.9513,-16.57855 13.4231,-31.16399 0.26342,-2.60467 0.175,-5.12645 -0.39236,-7.45666 0,0 0.11605,-0.66683 0.32052,-1.84759 0.094,-0.55077 0.21184,-1.21207 0.34447,-1.97284 0.38867,-2.22521 0.92287,-5.27198 1.53443,-8.74058 1.40734,-7.9835 3.22914,-18.18851 4.64384,-25.68939 l -0.74051,-0.23946 -8.02402,-2.5881 -1.65785,-5.26645 -5.97381,-1.57128 c 0,0 -1.33549,2.6102 -2.5273,14.9428 -0.22105,1.61733 -0.41999,3.40044 -0.57104,5.33645 -0.46604,5.9038 -0.4992,13.22784 0.56735,21.60185 0.27447,2.14231 0.62078,4.35647 1.04998,6.62958 0.31499,1.66706 0.36104,3.93832 0.22841,6.54668 -0.60051,11.92366 -4.97725,30.45295 -4.97725,30.45295"
       style="fill:#007989;fill-opacity:1;fill-rule:nonzero;stroke:none;stroke-width:0.0352779"
       id="path362" /><path
       d="m 611.09585,262.38506 12.97179,25.78885 c 0.094,-0.55077 0.21184,-1.21207 0.34447,-1.97284 0.38867,-2.22521 0.92287,-5.27198 1.53443,-8.74058 1.40734,-7.9835 3.22914,-18.18851 4.64384,-25.68939 l -0.74051,-0.23946 -8.02402,-2.5881 -1.65785,-5.26645 -5.97381,-1.57128 c 0,0 -1.33549,2.6102 -2.5273,14.9428 -0.22105,1.61733 -0.41999,3.40044 -0.57104,5.33645"
       style="fill:#004857;fill-opacity:1;fill-rule:nonzero;stroke:none;stroke-width:0.0352779"
       id="path364" /><path
       d="m 616.80255,245.41415 0.30026,-2.5752 c 5.03067,1.33734 18.47403,-3.73386 18.47403,-3.73386 0,0 4.87409,4.28464 4.2349,14.55413 -0.31315,5.01409 -0.88419,26.31384 -1.47918,32.61737 -0.21552,2.28416 -0.40525,3.9107 -0.48078,4.5591 -0.002,0.004 -0.002,0.006 -0.002,0.007 -0.0239,0.1971 0.0461,0.38499 0.14553,0.55814 0.87866,1.48839 1.60443,3.0394 2.19942,4.62542 5.85038,15.58568 -0.90077,34.77995 -0.90077,34.77995 l -1.7518,-0.70735 c 0,0 -3.8407,-21.36054 -6.96115,-30.79557 -0.53051,-1.60076 -1.03708,-2.85888 -1.50312,-3.61044 -1.3576,-2.19021 -2.61573,-5.76934 -3.75965,-10.0245 -2.16074,-8.04796 -3.89964,-18.51456 -5.05646,-26.59568 -0.15841,0.007 -3.45939,-13.65888 -3.45939,-13.65888"
       style="fill:#007989;fill-opacity:1;fill-rule:nonzero;stroke:none;stroke-width:0.0352779"
       id="path366" /><path
       d="m 638.24783,208.07742 c -0.006,0.0166 -0.0147,0.035 -0.0221,0.0516 -1.52891,3.55334 -4.432,8.1806 -9.30425,8.67243 -1.48286,0.15105 -3.14808,-0.0811 -5.01225,-0.84367 -2.14047,-0.87498 -3.7799,-1.971 -5.03066,-3.17939 2.07784,-3.82412 4.49278,-6.64616 4.60515,-6.7751 0.004,-0.006 0.004,-0.006 0.004,-0.006 0,0 0.32052,-0.0221 0.85103,-0.0516 0.21184,-0.18605 0.37394,-0.79761 0.50289,-1.59338 0.0847,-0.52867 0.15289,-1.13839 0.20631,-1.76101 0.0589,-0.67235 0.10315,-1.36128 0.13263,-1.97838 0.0626,-1.21576 0.0792,-2.15521 0.0792,-2.15521 l 6.85983,-0.72577 0.4071,-0.0424 c -0.19342,2.06311 -0.11421,3.83886 0.10499,5.24804 0.15289,0.99655 0.37947,1.8089 0.62999,2.40941 0.18236,0.4421 0.37946,0.76814 0.57104,0.97261 0.51946,0.11237 1.14576,0.26157 1.73522,0.43104 0.60235,0.17316 1.63759,0.48631 2.65809,1.30787 0.007,0.007 0.0166,0.0129 0.0221,0.0184"
       style="fill:#552200;fill-opacity:1;fill-rule:nonzero;stroke:none;stroke-width:0.0352779"
       id="path368" /><path
       d="m 632.24455,201.72599 c 0,0 -3.33966,2.82388 -7.40324,2.62678 0.0847,-0.52867 0.15289,-1.13839 0.20631,-1.76101 0.0589,-0.67235 0.10315,-1.36128 0.13263,-1.97838 1.76285,-0.0479 4.11332,0.24684 7.0643,1.11261"
       style="fill:#2b1100;fill-opacity:1;fill-rule:nonzero;stroke:none;stroke-width:0.0352779"
       id="path370" /><path
       d="m 640.41593,186.53451 c 0.2321,-0.29288 2.85888,-3.37834 7.94481,0.0939 0,0 -2.65257,-1.49944 -3.8628,-0.73683 0,0 2.63415,-0.10684 3.67491,1.31339 1.03892,1.42023 0.0939,4.37306 -0.47157,5.15777 -0.56367,0.78656 -3.16097,2.74836 -4.17595,2.33021 -0.38499,-0.15657 -0.74419,-0.45499 -1.04076,-0.76261 -0.0332,0.52499 -0.0995,1.08313 -0.20816,1.67996 -1.00392,5.51697 -5.96275,7.98902 -7.31666,6.32011 -0.86761,-1.07024 -2.5181,0.53972 -2.5181,0.53972 l -4.2349,-16.12172 c 0,0 9.66345,-5.12092 12.20918,0.18605"
       style="fill:#000000;fill-opacity:1;fill-rule:nonzero;stroke:none;stroke-width:0.0352779"
       id="path372" /><path
       d="m 636.4555,194.06854 c -0.4292,1.52891 -1.38707,3.31755 -2.27863,5.48566 -1.46628,3.56255 -5.84301,2.98045 -8.41269,2.27679 0,0 0,0 -0.002,0 -1.15129,-0.315 -1.93969,-0.65393 -1.93969,-0.65393 -2.08706,-1.05366 0.54709,-10.10924 1.67627,-11.65841 1.12734,-1.55101 2.96388,-3.09466 8.13086,-0.61893 2.99519,1.43681 3.41518,3.05598 2.82572,5.16882"
       style="fill:#552200;fill-opacity:1;fill-rule:nonzero;stroke:none;stroke-width:0.0352779"
       id="path374" /><path
       d="m 629.1112,332.23785 h 13.85967 c 0,0 0.33341,-2.11284 -0.39052,-3.71543 -0.69445,-1.53812 -1.78127,-2.23627 -1.5197,-4.09859 -0.88234,0.90814 -2.31731,1.92311 -4.32147,1.65417 -0.24499,0.39789 -1.58417,2.52731 -2.40389,3.11677 -0.90629,0.65025 -4.94409,0.41815 -5.22409,3.04308"
       style="fill:#004857;fill-opacity:1;fill-rule:nonzero;stroke:none;stroke-width:0.0352779"
       id="path376" /><path
       d="m 599.35087,332.23785 h 13.86151 c 0,0 0.51762,-2.21231 -0.39236,-3.71543 -0.80498,-1.33181 -0.49736,-2.09074 0.0995,-3.19045 -0.62814,0.25604 -1.44049,0.48999 -2.33389,0.43841 -0.69078,-0.0387 -1.42023,-0.35184 -2.06127,-0.72393 -0.59683,0.67972 -3.15177,3.57544 -3.94938,4.14832 -0.90629,0.65025 -4.94409,0.41815 -5.22408,3.04308"
       style="fill:#004857;fill-opacity:1;fill-rule:nonzero;stroke:none;stroke-width:0.0352779"
       id="path378" /><path
       d="m 626.92284,186.75003 c 1.91758,-1.02787 2.74651,-0.2892 3.0965,0.39973 5.55197,-0.62998 8.80874,3.06519 8.80874,3.06519 -0.96524,3.93096 -1.01498,8.33348 -1.01498,8.33348 0,0 -1.89364,0.31315 -5.00856,-2.01153 -0.95051,-0.71103 -1.59154,-1.85679 -2.02074,-3.10387 0.43841,2.93993 1.65785,5.42855 1.65785,5.42855 -3.36913,-3.62886 -2.66546,-10.10002 -2.58073,-10.77974 -0.69261,0.24684 -2.09442,0.82525 -2.79624,1.66707 -0.95235,1.14576 -2.24916,3.77438 -2.99888,3.35808 0,0 -0.0203,-4.81699 2.85704,-6.35696"
       style="fill:#000000;fill-opacity:1;fill-rule:nonzero;stroke:none;stroke-width:0.0352779"
       id="path380" /><path
       d="m 640.29067,218.80742 c -0.16762,-0.24315 -0.26341,-0.29841 -0.35736,-0.34446 -0.0939,-0.0479 -0.1842,-0.0884 -0.33709,-0.30394 -0.46236,-0.66683 -0.86209,-1.28024 -1.11814,-1.84759 -0.28183,-0.62078 -0.3942,-1.1955 -0.23946,-1.74812 0.11789,-0.41446 0.27631,-0.82892 0.46235,-1.23049 0.0884,-0.19158 0.18237,-0.37947 0.28,-0.56736 1.03708,-1.96548 2.55678,-3.54412 2.55678,-3.54412 -1.88627,-1.64681 -5.97012,-2.47021 -5.97012,-2.47021 0,0 -0.0626,0.21921 -0.18973,0.57288 -0.8584,2.33021 -5.01225,5.5225 -5.70855,6.0567 -0.86945,0.66314 -9.37609,0.38131 -9.52161,-0.98182 -0.14553,-1.33734 3.21071,-6.21143 3.33597,-6.39563 0.004,-0.006 0.004,-0.007 0.004,-0.007 -3.97332,0.1621 -5.62381,0.8805 -5.62381,0.8805 0,0.002 0.002,0.002 0.002,0.002 h -0.002 c 0,0 -3.11308,0.91735 -5.78776,6.07328 0,0 1.5197,1.13655 3.30835,1.70206 -0.26894,0.87314 -0.43657,1.7997 -0.40894,2.77783 0.004,0.18421 0,0.37026 0.035,0.5563 3.39307,17.903 -2.04101,24.97098 -2.04101,24.97098 -1.69838,3.13151 25.17729,7.99455 26.29174,4.99567 0.48262,-0.69814 0.71656,-1.60627 0.77182,-2.6323 0.13447,-2.4131 -0.71287,-5.47829 -1.59522,-7.94297 -0.30026,-0.84182 -0.60604,-1.61364 -0.87682,-2.26573 -0.17684,-0.42552 -0.31315,-0.86393 -0.41262,-1.30971 -0.25052,-1.11813 -0.25052,-2.28416 0.0111,-3.40965 1.0334,-4.44306 2.32468,-9.13294 3.1315,-11.58657"
       style="fill:#db8b51;fill-opacity:1;fill-rule:nonzero;stroke:none;stroke-width:0.0352779"
       id="path382" /><path
       d="m 649.34624,230.08636 -10.32475,5.29224 0.71656,2.04837 c 0,0 15.28727,-1.91574 16.19541,-5.66986 l -6.58722,-1.67075"
       style="fill:#552200;fill-opacity:1;fill-rule:nonzero;stroke:none;stroke-width:0.0352779"
       id="path384" /><path
       d="m 637.56074,235.11335 c 0.27078,0.65209 0.57656,1.42391 0.87682,2.26573 -0.011,0.0313 -0.0147,0.0461 -0.0147,0.0461 -9.09978,-6.96299 0.0553,-21.1137 0.0553,-21.1137 0.25605,0.56735 0.65578,1.18076 1.11814,1.84759 0.15289,0.21552 0.24315,0.25604 0.33709,0.30394 0.0939,0.046 0.18974,0.10131 0.35736,0.34446 -0.80682,2.45363 -2.0981,7.14351 -3.1315,11.58657 -0.26157,1.12549 -0.26157,2.29152 -0.0111,3.40965 0.0995,0.44578 0.23578,0.88419 0.41262,1.30971"
       style="fill:#9f5820;fill-opacity:1;fill-rule:nonzero;stroke:none;stroke-width:0.0352779"
       id="path386" /><path
       d="m 641.53591,209.22134 c 0,0 13.121,11.75971 14.39755,22.53577 0,0 -1.87154,0.68156 -4.27174,0 -2.39837,-0.67972 -15.37016,-15.15832 -14.9778,-16.88065 0.39236,-1.72048 4.85199,-5.65512 4.85199,-5.65512"
       style="fill:#552200;fill-opacity:1;fill-rule:nonzero;stroke:none;stroke-width:0.0352779"
       id="path388" /><path
       d="m 639.01965,207.79558 c 0,0 5.34935,1.77575 7.73113,5.30882 0,0 -2.01153,4.56831 -9.68556,5.77855 0,0 -5.08593,-6.94826 1.95443,-11.08737"
       style="fill:#9f5820;fill-opacity:1;fill-rule:nonzero;stroke:none;stroke-width:0.0352779"
       id="path390" /><path
       d="m 659.52547,265.56814 c 0,0 -7.18956,4.67147 -9.49766,7.0422 0,0 -8.85847,2.77414 -9.44609,3.01177 -0.58946,0.23578 0.30025,2.12574 0.30025,2.12574 0,0 8.43849,-0.59499 11.01921,-1.74075 2.58073,-1.14392 11.21447,-4.64199 11.76341,-7.56534 0.54893,-2.92336 -4.13912,-2.87362 -4.13912,-2.87362"
       style="fill:#552200;fill-opacity:1;fill-rule:nonzero;stroke:none;stroke-width:0.0352779"
       id="path392" /><path
       d="m 667.99159,319.98078 1.6118,8.57848 h 2.92519 l 0.75525,-10.46843 -5.29224,1.88995"
       style="fill:#552200;fill-opacity:1;fill-rule:nonzero;stroke:none;stroke-width:0.0352779"
       id="path394" /><path
       d="m 654.81348,319.20896 -1.82916,9.4553 2.56414,0.10499 4.8741,-9.21583 -5.60908,-0.34446"
       style="fill:#552200;fill-opacity:1;fill-rule:nonzero;stroke:none;stroke-width:0.0352779"
       id="path396" /><path
       d="m 669.5426,328.23321 c 0,0 -0.6963,1.25997 -2.00784,1.54549 -0.82525,0.17868 -1.5326,0.60972 -1.97285,1.21208 -0.3721,0.51025 -0.0129,1.22681 0.61709,1.22681 h 6.65905 c 0.56735,0 1.00945,-0.48999 0.95419,-1.05366 -0.0497,-0.49367 -0.10316,-1.06839 -0.12526,-1.50865 -0.0497,-0.96155 -1.08498,-1.831 -1.08498,-1.831 0,0 -0.91734,0.51946 -1.27102,0.5784 -0.7663,0.13079 -1.76838,-0.16947 -1.76838,-0.16947"
       style="fill:#b2443b;fill-opacity:1;fill-rule:nonzero;stroke:none;stroke-width:0.0352779"
       id="path398" /><path
       d="m 653.05247,328.23321 c 0,0 -0.68893,1.26366 -1.99863,1.55654 -0.82525,0.18421 -1.53076,0.61894 -1.96733,1.22498 -0.36841,0.51209 -0.006,1.22497 0.62631,1.22312 l 6.65905,-0.0387 c 0.56551,-0.004 1.00576,-0.49551 0.94681,-1.05918 -0.0534,-0.49183 -0.10868,-1.06656 -0.13262,-1.50681 -0.0553,-0.96156 -1.09787,-1.82548 -1.09787,-1.82548 0,0 -0.91366,0.52498 -1.2655,0.58577 -0.76814,0.13447 -1.77022,-0.16026 -1.77022,-0.16026"
       style="fill:#b2443b;fill-opacity:1;fill-rule:nonzero;stroke:none;stroke-width:0.0352779"
       id="path400" /><path
       d="m 653.29562,319.60132 c 0,0 2.77046,0.86576 5.82644,1.14207 2.87914,0.26158 6.01065,0.002 7.32956,-1.99126 0.38315,-0.57841 0.59867,-1.58049 0.68893,-2.87546 0.55262,-7.92823 -3.63807,-26.86094 -3.63807,-26.86094 h -4.88698 c 0,0.39052 -5.31988,30.58559 -5.31988,30.58559"
       style="fill:#ffc183;fill-opacity:1;fill-rule:nonzero;stroke:none;stroke-width:0.0352779"
       id="path402" /><path
       d="m 659.12206,320.74339 c 2.87914,0.26158 6.01065,0.002 7.32956,-1.99126 0.38315,-0.57841 0.59867,-1.58049 0.68893,-2.87546 -0.004,-0.0147 -0.007,-0.0276 -0.011,-0.0424 -0.77919,-2.90677 -2.90677,-20.91108 -2.90677,-20.91108 0,0 -7.30746,19.25691 -5.10067,25.82017"
       style="fill:#db8b51;fill-opacity:1;fill-rule:nonzero;stroke:none;stroke-width:0.0352779"
       id="path404" /><path
       d="m 674.2067,290.11544 c 0,0 2.19574,14.74386 3.18861,30.47875 0,0 -6.89852,2.83493 -13.30152,0.56735 l -1.16971,-30.00533 11.28262,-1.04077"
       style="fill:#ffc183;fill-opacity:1;fill-rule:nonzero;stroke:none;stroke-width:0.0352779"
       id="path406" /><path
       d="m 670.91678,247.36858 c 0,0 0.44394,-1.95811 2.29705,-2.0539 0,0 -0.5913,0.35183 -0.68525,0.72577 0,0 1.07392,-0.90261 2.74099,-0.30025 1.66522,0.60419 4.13911,2.30073 2.89388,6.24642 -1.24524,3.9457 1.29681,4.92199 2.31731,7.46772 1.02234,2.54573 -2.45547,3.03387 -1.73338,5.02146 0.72025,1.98758 -1.42575,6.68115 -6.88194,4.6291 -5.45618,-2.05206 -6.69589,-9.92319 -4.37858,-11.84446 2.31916,-1.92311 3.42992,-9.89186 3.42992,-9.89186"
       style="fill:#000000;fill-opacity:1;fill-rule:nonzero;stroke:none;stroke-width:0.0352779"
       id="path408" /><path
       d="m 669.2534,247.26358 c 0,0 2.44994,-0.32789 3.96964,1.25997 0.81972,0.85656 -0.0276,2.0889 -0.0276,2.0889 l -3.94201,-3.34887"
       style="fill:#f99f46;fill-opacity:1;fill-rule:nonzero;stroke:none;stroke-width:0.0352779"
       id="path410" /><path
       d="m 661.82805,251.05823 c 0.0461,-0.0774 1.99311,-3.15546 5.63302,-3.76886 2.94914,-0.4992 5.70855,1.58417 6.1617,4.54068 0.45499,2.9694 -0.009,6.81747 -4.85383,8.20454 l -6.94089,-8.97636"
       style="fill:#000000;fill-opacity:1;fill-rule:nonzero;stroke:none;stroke-width:0.0352779"
       id="path412" /><path
       d="m 662.71961,264.29343 5.48381,3.25677 1.38523,-3.85912 c 0,0 -0.63551,-1.40733 -0.81971,-3.65649 -0.0774,-0.94682 -0.0755,-2.04285 0.0884,-3.24387 l -4.76909,2.07048 c 0,0 0.0829,0.43288 0.11789,1.06839 0.035,0.68525 0.0111,1.60628 -0.23762,2.46652 -0.21553,0.73683 -0.59499,1.43128 -1.24892,1.89732"
       style="fill:#552200;fill-opacity:1;fill-rule:nonzero;stroke:none;stroke-width:0.0352779"
       id="path414" /><path
       d="m 663.96853,262.39611 c 2.63046,0.0958 4.80041,-2.36152 4.80041,-2.36152 l -4.56279,-0.105 c 0.035,0.68525 0.0111,1.60628 -0.23762,2.46652"
       style="fill:#2b1100;fill-opacity:1;fill-rule:nonzero;stroke:none;stroke-width:0.0352779"
       id="path416" /><path
       d="m 662.78776,260.85062 c 0,0 5.15041,1.7168 7.22088,-2.33389 2.23627,-4.37121 0.30579,-7.78087 -1.45891,-8.11612 -3.51834,-0.66498 -5.66434,0.5563 -6.37906,1.94522 -0.71472,1.39075 -2.22705,7.58376 0.61709,8.50479"
       style="fill:#552200;fill-opacity:1;fill-rule:nonzero;stroke:none;stroke-width:0.0352779"
       id="path418" /><path
       d="m 665.01297,258.63831 c 0,0 -0.2542,0.52683 -1.61548,0.13447 0,0 -1.14392,-0.32789 -0.97445,-0.93024 0,0 1.22128,-0.18421 2.58993,0.79577"
       style="fill:#ffffff;fill-opacity:1;fill-rule:nonzero;stroke:none;stroke-width:0.0352779"
       id="path420" /><path
       d="m 655.78977,268.09729 4.37122,-3.55334 -0.002,0.004 c 0.51762,-0.44394 1.17708,-0.76262 2.01338,-0.86945 0.30762,-0.0387 0.95603,-0.15842 1.31707,-0.20263 -0.0608,0.81419 -0.0608,1.47181 1.36128,1.72233 1.89364,0.33341 3.77439,-0.81235 4.677,-1.65602 1.48101,0.28 2.19757,0.46236 3.37649,0.93024 0.68157,0.26894 1.22129,0.75893 1.56023,1.36497 0.30578,0.55078 0.44578,1.1955 0.36841,1.85311 l -1.45523,12.5426 c 0,0 1.74075,10.67843 1.44234,10.70606 -1.99496,0.19157 -10.71711,1.94153 -16.95249,-0.0516 -1.00761,-0.32236 1.41102,-5.97565 0.92656,-17.54195 -3.45939,-2.07232 -3.00441,-5.24803 -3.00441,-5.24803"
       style="fill:#007989;fill-opacity:1;fill-rule:nonzero;stroke:none;stroke-width:0.0352779"
       id="path422" /><path
       d="m 666.39636,250.88323 c 0,0 -0.0681,4.04332 2.26205,5.37513 0,0 -0.92103,-1.90469 -0.60972,-3.06887 0,0 0.60235,3.60676 2.44257,4.23674 1.84022,0.62814 2.77046,-6.69958 -1.03708,-8.17322 -3.80754,-1.47181 -7.5635,0.27815 -8.01296,2.85335 -0.44762,2.5752 -0.10684,3.11308 -0.10684,3.11308 0,0 1.78311,-4.90172 5.06198,-4.33621"
       style="fill:#000000;fill-opacity:1;fill-rule:nonzero;stroke:none;stroke-width:0.0352779"
       id="path424" /><path
       d="m 674.82011,290.93885 c 0.29841,-0.0276 -1.44234,-10.70606 -1.44234,-10.70606 l 1.45523,-12.5426 c 0.0774,-0.65761 -0.0626,-1.30233 -0.36841,-1.85311 -0.10131,0.0166 -0.20079,0.0626 -0.29657,0.14368 -3.0523,2.5752 -5.85776,13.01416 -5.85776,13.01416 0,0 -1.4718,8.44401 6.50985,11.94393"
       style="fill:#004857;fill-opacity:1;fill-rule:nonzero;stroke:none;stroke-width:0.0352779"
       id="path426" /><path
       d="m 675.27325,269.10121 c 0,0 2.59915,9.80898 2.12206,11.61236 -0.47525,1.80337 -5.53355,5.97933 -6.37722,6.25379 l -0.60788,-1.60627 c 0,0 3.84807,-5.30882 3.52202,-5.88355 -0.70551,-1.23418 -3.52202,-8.46979 -3.52202,-8.46979 l 4.86304,-1.90654"
       style="fill:#552200;fill-opacity:1;fill-rule:nonzero;stroke:none;stroke-width:0.0352779"
       id="path428" /><path
       d="m 671.14888,272.90691 c 0,0 2.98598,0.52315 5.89828,-2.48862 0,0 -2.47389,-7.2393 -5.55934,-5.77302 -3.08361,1.46628 -2.34126,6.51721 -0.33894,8.26164"
       style="fill:#007989;fill-opacity:1;fill-rule:nonzero;stroke:none;stroke-width:0.0352779"
       id="path430" /><path
       d="m 670.41021,285.36109 c 0,0 -2.54941,0.49919 -2.65809,1.3226 -0.0847,0.65945 1.07392,1.73706 1.69654,1.51049 0.62261,-0.22842 1.56943,-1.22682 1.56943,-1.22682 l -0.60788,-1.60627"
       style="fill:#552200;fill-opacity:1;fill-rule:nonzero;stroke:none;stroke-width:0.0352779"
       id="path432" /><path
       d="m 640.58172,275.62211 c 0,0 -3.74675,-1.93785 -4.08017,-1.24523 -0.33341,0.69077 0.46052,2.73914 1.25445,2.99519 0.79393,0.25604 3.12597,0.37578 3.12597,0.37578 l -0.30025,-2.12574"
       style="fill:#552200;fill-opacity:1;fill-rule:nonzero;stroke:none;stroke-width:0.0352779"
       id="path434" /><path
       d="M 772.07724,333.27309 H 267.07143 c -0.31536,0 -0.57343,-0.25973 -0.57343,-0.57472 v -0.19526 c 0,-0.31499 0.25807,-0.57288 0.57343,-0.57288 h 421.98194 83.02387 c 0.315,0 0.57288,0.25789 0.57288,0.57288 v 0.19526 c 0,0.31499 -0.25788,0.57472 -0.57288,0.57472"
       style="fill:#000000;fill-opacity:1;fill-rule:nonzero;stroke:none;stroke-width:0.0352779"
       id="path436"
       sodipodi:nodetypes="csssscsssc" /><path
       style="fill:#2d4312;fill-opacity:1;stroke-width:0.264583"
       d="m 512.03937,281.60163 -6.7066,-3.08515 -1.40471,-11.89635 -1.40469,-11.89643 0.74949,-0.62463 c 2.06362,-1.71986 10.87495,-8.466 11.09712,-8.49618 0.20885,-0.029 5.62385,2.4233 12.32438,5.57994 l 1.22186,0.57559 1.35875,11.92985 1.35873,11.92987 -2.74478,2.12734 c -5.51847,4.27701 -8.975,6.92213 -9.05797,6.93159 -0.0471,0.003 -3.10295,-1.37861 -6.79157,-3.07545 z m 10.80823,-0.36125 c 2.11501,-1.64782 4.66108,-3.61976 5.65793,-4.38209 l 1.81244,-1.38609 -0.46058,-4.36959 c -1.24515,-11.8133 -2.00094,-18.54856 -2.11814,-18.87501 -0.0752,-0.20992 -0.86115,-0.65398 -1.88077,-1.06304 -0.96326,-0.38642 -3.93008,-1.70901 -6.59298,-2.93908 l -4.8416,-2.23653 -3.39831,2.64741 c -1.86906,1.4561 -4.23966,3.25542 -5.26794,3.99853 -1.02827,0.74307 -2.12757,1.57047 -2.44284,1.83861 l -0.57324,0.48754 1.32582,11.47919 c 0.72957,6.31352 1.39285,11.56393 1.47575,11.66743 0.0826,0.1035 1.47846,0.80685 3.1015,1.56303 1.62301,0.7562 4.50807,2.10236 6.41121,2.9915 1.90317,0.88909 3.56977,1.60703 3.70357,1.59533 0.13358,-0.0126 1.97377,-1.36943 4.08878,-3.01722 z m -4.95114,1.83336 c -0.3937,-0.19971 -0.75661,-0.39588 -0.80643,-0.43595 -0.23994,-0.19302 3.32751,-3.43879 5.13852,-4.67543 1.59549,-1.08947 5.38047,-3.03416 6.59971,-3.39086 1.58858,-0.46477 0.90363,0.32787 -2.63923,3.05419 -1.92467,1.48109 -4.3916,3.39199 -5.48202,4.24646 -1.09046,0.85446 -2.00785,1.55608 -2.03863,1.55914 -0.0308,0.002 -0.37819,-0.15777 -0.77192,-0.35755 z m -3.19531,-1.48165 c -0.91961,-0.43874 -1.72855,-0.8469 -1.79757,-0.90701 -0.33774,-0.29392 3.83117,-3.55167 6.37012,-4.9779 2.77558,-1.55914 7.42171,-3.29687 9.4249,-3.52502 0.6513,-0.0742 0.67026,-0.0554 0.76169,0.74744 0.0907,0.79495 0.0667,0.83447 -0.68917,1.14034 -4.74128,1.91889 -9.04334,4.72206 -11.52178,7.50755 -0.40996,0.4607 -0.77481,0.83197 -0.81074,0.82503 -0.0361,-0.009 -0.8178,-0.37163 -1.73745,-0.81043 z m -4.39658,-2.03102 c -0.98564,-0.44714 -1.89406,-0.9018 -2.01872,-1.01028 -0.15958,-0.139 0.4003,-0.63889 1.89242,-1.68983 5.42947,-3.82406 11.12415,-6.14855 16.59744,-6.77486 l 2.33031,-0.267 0.0937,0.82213 c 0.10526,0.9235 0.38002,0.75829 -2.61528,1.57229 -4.59571,1.24894 -9.95773,4.17999 -13.44383,7.34886 -0.49021,0.4456 -0.9256,0.81042 -0.96759,0.81076 -0.0421,-0.004 -0.88277,-0.36525 -1.86838,-0.81241 z m -3.64023,-1.62061 c -0.60297,-0.27049 -0.8141,-0.83972 -0.33172,-0.89464 0.50848,-0.058 2.03881,0.23126 2.05675,0.38868 0.0168,0.15283 -0.78697,0.73703 -1.03178,0.74959 -0.0741,0.004 -0.38604,-0.10581 -0.6932,-0.24365 z m 1.26232,-1.18395 c -0.48781,-0.0953 -1.1289,-0.2038 -1.42461,-0.24096 -0.47652,-0.0601 -0.54837,-0.16159 -0.63192,-0.8951 -0.0934,-0.8179 -0.0864,-0.82841 0.61936,-0.90761 0.80173,-0.0897 5.0556,0.17031 5.22742,0.32006 0.14172,0.12338 -2.33161,1.88313 -2.65823,1.89109 -0.13483,3.5e-4 -0.64415,-0.0723 -1.13202,-0.16748 z m 3.21075,-2.26638 c -0.59363,-0.0938 -1.77571,-0.1932 -2.62684,-0.22124 -3.06663,-0.10108 -2.79557,-0.0106 -2.90473,-0.96893 l -0.0967,-0.85045 3.29518,-0.25571 c 2.92505,-0.22711 6.12356,-0.11294 7.4981,0.26689 0.31108,0.0862 -2.78437,1.86543 -3.61746,2.07945 -0.25744,0.0665 -0.95378,0.0435 -1.54741,-0.0492 z m 5.88917,-2.32621 c -0.31246,-0.27196 -4.89704,-0.62479 -7.4144,-0.57061 l -2.82648,0.0614 0.66504,-0.67163 c 0.38144,-0.38517 0.75315,-1.03546 0.87167,-1.52485 0.26706,-1.10258 0.6592,-1.39733 1.594,-1.19788 0.39677,0.0847 0.76075,0.0994 0.80895,0.0331 0.048,-0.0661 0.11469,-0.70591 0.148,-1.42116 0.0767,-1.65201 0.50648,-2.48896 1.22235,-2.38062 0.28241,0.0425 0.77096,0.2908 1.08583,0.55126 0.33126,0.27407 0.68855,0.40852 0.84814,0.31916 0.15167,-0.085 0.47262,-0.7497 0.71323,-1.47732 0.43668,-1.32048 0.96972,-1.78119 1.29173,-1.11647 0.20755,0.4285 0.13063,1.81142 -0.13926,2.50654 -0.20595,0.53028 -0.19505,0.66726 0.0829,1.04345 0.63824,0.86324 0.94645,1.43204 1.25222,2.31079 0.35809,1.02933 0.51654,0.85711 0.68117,-0.7404 0.1,-0.97102 0.078,-1.03933 -0.56185,-1.7393 -0.47159,-0.51586 -0.62528,-0.82206 -0.52636,-1.04877 0.0965,-0.22079 0.14988,-0.23976 0.17212,-0.0605 0.0177,0.14277 0.12808,0.24866 0.24502,0.23535 0.11881,-0.013 0.14782,-0.20244 0.066,-0.42862 -0.081,-0.22245 -0.0865,-0.4113 -0.0144,-0.41966 0.30979,-0.0352 1.71113,1.43467 1.90143,1.99447 0.25336,0.74537 0.98802,1.67782 1.29304,1.64129 0.2863,-0.0349 0.737,-1.18997 0.92499,-2.37214 0.0799,-0.50375 0.41601,-1.41561 0.74641,-2.0263 l 0.60076,-1.11041 0.76966,0.72027 c 0.42328,0.39614 0.97149,0.76419 1.21823,0.81789 0.42388,0.0923 0.45012,0.17143 0.4753,1.43433 0.0144,0.73516 0.101,1.48929 0.19097,1.67595 0.15415,0.31819 0.18452,0.31424 0.48807,-0.0637 0.37695,-0.46842 0.51237,-0.41285 2.10482,0.86328 1.24992,1.00167 1.35077,1.45869 0.30584,1.38636 -1.18889,-0.0823 -5.97962,0.96283 -8.206,1.79032 -2.95997,1.10009 -2.95158,1.0974 -3.08039,0.98527 z m 7.73872,-4.31386 c 0.0358,-0.31682 -0.0938,-1.08951 -0.28822,-1.7171 -0.19416,-0.62759 -0.37717,-1.35144 -0.40643,-1.60853 -0.0804,-0.70414 -0.38003,-0.29115 -0.50774,0.69937 -0.0926,0.71935 -0.0258,1.08395 0.37305,2.05257 0.53706,1.30204 0.73196,1.43683 0.82937,0.57369 z m -11.54871,1.26608 c 0.25224,-0.70853 -0.0559,-2.32375 -0.43534,-2.28056 -0.30703,0.0351 -0.45163,1.16437 -0.24772,1.93471 0.23469,0.88657 0.45147,0.99633 0.68308,0.34585 z m -8.303,-1.96359 c -0.30352,-2.61684 -0.37519,-3.80022 -0.23153,-3.81659 0.11463,-0.013 0.98928,0.32844 1.94354,0.75893 1.45204,0.65507 1.78846,0.73656 2.06281,0.49963 0.3908,-0.33738 -1.71297,3.86426 -2.66733,5.32727 l -0.66775,1.02364 z m 22.346,-1.70276 c -0.80406,-1.03761 -1.67178,-2.05697 -1.92821,-2.26524 l -0.46624,-0.37862 1.58604,-1.18552 1.58604,-1.18549 0.39235,3.44503 c 0.21579,1.89475 0.36901,3.44765 0.34225,3.45071 -0.0276,10e-4 -0.70809,-0.84324 -1.51216,-1.88086 z m -8.38799,-1.82331 c -0.61912,-0.55192 -0.72622,-0.72001 -0.42704,-0.67022 0.96956,0.16136 2.71432,-2.10018 3.60877,-4.67751 0.5211,-1.5016 1.61145,-5.7772 1.56882,-6.15168 -0.03,-0.26365 -3.98488,3.18936 -4.76363,4.15912 -0.5866,0.73055 -0.61207,0.84537 -0.5296,2.38867 l 0.087,1.62118 0.78414,-1.19395 c 0.43125,-0.65668 0.97614,-1.5001 1.21087,-1.87428 0.23472,-0.37417 0.43739,-0.61128 0.45034,-0.5269 0.0128,0.0843 -0.60224,1.23449 -1.36711,2.55579 -0.76489,1.32129 -1.4698,2.63351 -1.56656,2.91602 l -0.17581,0.51366 -0.41228,-0.40872 c -0.22674,-0.22479 -0.30154,-0.35465 -0.16609,-0.28857 0.33735,0.1648 0.71373,-0.73026 0.88806,-2.11158 0.18611,-1.47463 -0.0762,-3.7072 -0.62931,-5.36377 -0.4044,-1.20884 -2.44961,-6.11957 -2.70723,-6.50021 -0.14462,-0.21364 -1.10424,5.12857 -1.28023,7.12725 -0.15506,1.76142 0.29318,5.30738 0.71765,5.67687 0.19288,0.16782 -0.004,0.43627 -0.84153,1.14942 -1.25813,1.07085 -1.49956,1.14995 -1.65395,0.54186 -0.0613,-0.24202 -0.36221,-0.60016 -0.66838,-0.79601 -0.5487,-0.35094 -0.59545,-0.34647 -3.24079,0.31062 -1.47621,0.36663 -2.82858,0.73007 -3.00528,0.80748 -0.29735,0.13023 -0.35228,-0.13417 -0.74013,-3.56341 -0.23048,-2.03726 -0.36688,-3.80624 -0.30315,-3.93105 0.29616,-0.5804 10.30775,-8.43564 10.82666,-8.49474 0.35073,-0.0402 10.31857,4.52859 11.70221,5.36343 l 0.92735,0.55954 0.42318,3.71555 0.42319,3.71557 -1.00852,0.0284 c -0.55471,0.0156 -1.59143,0.006 -2.3039,-0.0225 -0.71242,-0.0286 -1.74968,0.002 -2.30501,0.0663 -0.95787,0.11153 -1.05171,0.17615 -1.83038,1.26134 -0.62215,0.86706 -0.73466,1.1341 -0.4649,1.1034 0.19571,-0.0223 0.54581,-0.27542 0.77794,-0.56244 0.23214,-0.28704 0.0751,0.10993 -0.34913,0.88208 -0.42418,0.77212 -0.78406,1.40539 -0.79969,1.40716 -0.0156,0.001 -0.40035,-0.32828 -0.85485,-0.73348 z m -5.80505,-1.74673 0.50756,-0.55703 -1.37447,-1.55528 c -0.75594,-0.8554 -1.37956,-1.6253 -1.38578,-1.71086 -0.009,-0.0855 0.1815,0.045 0.4172,0.29087 0.23569,0.24557 0.92407,0.91827 1.52979,1.49491 l 1.10124,1.04843 -0.21992,-0.90708 c -0.12108,-0.49887 -0.29995,-1.277 -0.39779,-1.72913 -0.13952,-0.6447 -0.34549,-0.93923 -0.95498,-1.36527 -1.18449,-0.82791 -5.43295,-3.06623 -5.40827,-2.84938 0.043,0.37757 2.36008,4.90351 3.0056,5.87083 0.78947,1.18305 2.13889,2.58923 2.44938,2.5524 0.12258,-0.0145 0.45127,-0.277 0.73044,-0.58341 z m 9.95628,0.21336 c -0.48668,-0.32537 -0.49293,-0.34406 -0.0936,-0.2798 0.23544,0.0381 0.48908,0.19463 0.56361,0.34857 0.17136,0.35345 0.15848,0.3516 -0.47024,-0.0688 z m -12.59299,0.65296 c 0.17899,-0.0741 0.43633,-0.0994 0.57163,-0.0572 0.13536,0.0421 -0.0123,0.10267 -0.32565,0.13423 -0.31452,0.0303 -0.42505,-0.003 -0.2459,-0.0769 z m 11.13797,-1.26619 c 0.13036,-0.0757 0.2954,-0.0871 0.36648,-0.025 0.071,0.0619 -0.0357,0.12379 -0.23732,0.13761 -0.22289,0.0147 -0.27346,-0.0288 -0.12918,-0.11242 z m -5.48858,-0.28393 c -0.33979,-0.30876 -0.51621,-0.5729 -0.39198,-0.58708 0.16213,-0.0188 0.14279,-0.75465 -0.0687,-2.61191 -0.17081,-1.49989 -0.22063,-2.64927 -0.11888,-2.73633 0.1142,-0.0975 0.29892,0.93238 0.52743,2.93869 0.24203,2.12526 0.43185,3.15858 0.60863,3.3123 0.14114,0.12292 0.21267,0.22849 0.15913,0.2346 -0.0542,0.003 -0.37564,-0.24152 -0.71542,-0.55025 z m -1.33582,-0.41289 c 0.13066,-0.0759 0.29545,-0.0871 0.36649,-0.025 0.0713,0.0619 -0.0357,0.12377 -0.23732,0.13756 -0.22288,0.0149 -0.27348,-0.0287 -0.12916,-0.1124 z"
       id="path6574"
       sodipodi:nodetypes="ccccscscccssscsscsssscssscsssscsssssssscsssssscssscssccssscccssscssssssssssscsssscscsssssssssssssssscsssscsscssssssssccsssssssssscssssccsscccsssssssssscsscsscssssssssssssccssccccscsssssssscsssscsssssssssssssscsccsccssssssssccscc"
       inkscape:export-filename="../e66efb37/premierfarmersmart-mobile-logo.svg"
       inkscape:export-xdpi="96"
       inkscape:export-ydpi="96"
       inkscape:transform-center-x="3.3839389"
       inkscape:transform-center-y="-6.0259313" /></g></svg>
