<?xml version="1.0" encoding="UTF-8" standalone="no"?>
<!-- Created with Inkscape (http://www.inkscape.org/) -->

<svg
   version="1.1"
   id="svg148"
   width="558"
   height="448"
   viewBox="0 0 558 448"
   xml:space="preserve"
   xmlns="http://www.w3.org/2000/svg"
   xmlns:svg="http://www.w3.org/2000/svg"><defs
     id="defs152" /><g
     id="g154"><g
       id="g904"
       transform="translate(-178.89629,-129.45549)" /><g
       id="g3567"><path
         style="fill:#2d4312;fill-opacity:1;stroke-width:1"
         d="m 335.42221,325.68378 c 0,-0.41881 0.2874,-0.5615 0.63867,-0.31708 0.35128,0.24441 0.63868,0.58708 0.63868,0.76148 0,0.1744 -0.2874,0.31709 -0.63868,0.31709 -0.35127,0 -0.63867,-0.34267 -0.63867,-0.76149 z m -72.50433,-65.59111 -21.06197,-13.14309 -0.1649,-41.16903 -0.16492,-41.16903 2.71963,-1.84146 c 7.48816,-5.07025 39.2363,-24.6795 39.98407,-24.69616 0.70279,-0.0157 17.72329,10.46202 38.7382,23.84693 l 3.83207,2.44074 v 41.2654 41.26541 l -9.89951,6.19672 c -19.90315,12.45864 -32.35695,20.14667 -32.63547,20.14667 -0.15687,0 -9.76311,-5.91439 -21.3472,-13.1431 z m 35.95604,2.97012 c 7.63138,-4.80418 16.81364,-10.54758 20.40503,-12.7631 l 6.5298,-4.02822 0.12291,-15.10001 c 0.33228,-40.82319 0.3695,-64.11614 0.1043,-65.27639 -0.17049,-0.74585 -2.60707,-2.56808 -5.83181,-4.36139 -3.04643,-1.69416 -12.37964,-7.3643 -20.74045,-12.60031 l -15.20148,-9.52002 -12.26167,7.71855 c -6.74391,4.2452 -15.27941,9.46743 -18.96778,11.60495 -3.68836,2.13752 -7.64381,4.53526 -8.78988,5.32831 l -2.08376,1.44191 0.0591,39.71368 c 0.0325,21.84252 0.25168,40.02917 0.48707,40.41476 0.23539,0.38559 4.59535,3.33019 9.6888,6.54355 5.09346,3.21336 14.14672,8.93215 20.11835,12.70843 5.97164,3.77628 11.22399,6.87591 11.67189,6.88807 0.44791,0.0122 7.05822,-3.90858 14.68959,-8.71277 z m -17.10065,4.33494 c -1.22945,-0.83511 -2.35809,-1.64616 -2.50808,-1.80236 -0.72218,-0.75202 12.32565,-10.44833 18.79437,-13.96679 5.69885,-3.09971 18.97678,-8.26823 23.15207,-9.01209 5.44016,-0.96921 2.87099,1.47104 -9.89951,9.40277 -6.93764,4.30894 -15.83455,9.87469 -19.77091,12.36834 -3.93636,2.49363 -7.24152,4.53267 -7.34479,4.53119 -0.10328,-10e-4 -1.19369,-0.68596 -2.42315,-1.52106 z M 271.7429,261.0956 c -2.88216,-1.8559 -5.40895,-3.56424 -5.61509,-3.79631 -1.00816,-1.13503 14.03765,-10.63799 22.99026,-14.52069 9.78715,-4.24462 25.84081,-8.37143 32.56569,-8.37143 2.18654,0 2.24225,0.0708 2.24225,2.84848 0,2.74982 -0.094,2.87541 -2.71438,3.626 -16.43747,4.70845 -31.75303,12.60736 -41.01834,21.15498 -1.53252,1.41381 -2.88173,2.53968 -2.99825,2.50194 -0.11651,-0.0378 -2.56998,-1.58708 -5.45214,-3.44297 z m -13.80414,-8.64533 c -3.09771,-1.91019 -5.93672,-3.81591 -6.30891,-4.23494 -0.47651,-0.53646 1.56777,-2.0259 6.90955,-5.03425 19.4372,-10.94648 39.18744,-16.66924 57.5628,-16.67919 l 7.82381,-0.004 v 2.84362 c 0,3.19446 0.97312,2.73717 -9.26083,4.35183 -15.70212,2.47741 -34.57883,10.40078 -47.32827,19.86574 -1.79271,1.33088 -3.37344,2.40735 -3.51272,2.39215 -0.13928,-0.0152 -2.78772,-1.59052 -5.88543,-3.50071 z m -11.45243,-6.9496 c -1.89628,-1.15821 -2.38098,-3.18397 -0.76183,-3.18397 1.70711,0 6.6696,1.58265 6.6696,2.12709 0,0.52812 -2.88631,2.21075 -3.70245,2.15841 -0.24693,-0.0158 -1.23932,-0.51152 -2.20532,-1.10153 z m 4.63041,-3.55189 c -1.58073,-0.51548 -3.66441,-1.1351 -4.63041,-1.37693 -1.55651,-0.38966 -1.75637,-0.76542 -1.75637,-3.30218 0,-2.82915 0.0279,-2.86245 2.39504,-2.85835 2.69105,0.004 16.69065,2.54832 17.20359,3.12582 0.42351,0.4768 -8.43802,5.52355 -9.52351,5.42374 -0.44786,-0.0412 -2.10761,-0.49661 -3.68834,-1.0121 z m 11.4962,-6.49036 c -1.932,-0.55061 -5.81197,-1.35031 -8.62215,-1.7771 -10.12499,-1.53773 -9.26083,-1.12358 -9.26083,-4.43821 v -2.94175 l 11.01719,0.40839 c 9.77952,0.36251 20.33682,1.99519 24.74877,3.82739 0.99869,0.41473 -9.93179,5.287 -12.77356,5.69381 -0.87818,0.12572 -3.17742,-0.22192 -5.10942,-0.77253 z m 20.3953,-5.65295 c -0.93278,-1.05016 -15.99345,-4.03795 -24.35672,-4.83198 l -9.39019,-0.89153 2.45747,-2.03466 c 1.40951,-1.167 2.88685,-3.24286 3.46439,-4.86791 1.3012,-3.66125 2.71205,-4.51507 5.73483,-3.4706 1.28288,0.44327 2.48365,0.63579 2.66837,0.42782 0.18473,-0.20797 0.64685,-2.3658 1.02695,-4.79517 0.87795,-5.6114 2.61801,-8.30215 4.94958,-7.65383 0.91969,0.25574 2.44538,1.29285 3.39041,2.30471 0.99443,1.06475 2.12777,1.6628 2.69043,1.41972 0.5347,-0.231 1.84932,-2.37625 2.92136,-4.76721 1.94563,-4.33927 3.886,-5.70515 4.70234,-3.31009 0.52623,1.54387 -0.25039,6.23628 -1.40762,8.50503 -0.88272,1.73057 -0.89829,2.20263 -0.1186,3.59524 1.78934,3.19596 2.59613,5.25808 3.27776,8.37783 0.79831,3.65386 1.38829,3.12749 2.53701,-2.26347 0.69823,-3.27682 0.65088,-3.51868 -1.20563,-6.15769 -1.36824,-1.94493 -1.76194,-3.05025 -1.34851,-3.78595 0.40275,-0.71669 0.58695,-0.7602 0.59369,-0.14024 0.005,0.49434 0.3307,0.89881 0.72295,0.89881 0.39872,0 0.56588,-0.63407 0.37913,-1.4381 -0.18372,-0.79095 -0.13187,-1.43809 0.11523,-1.43809 1.03993,0 5.12927,5.56436 5.54863,7.55 0.55831,2.64362 2.64108,6.11353 3.66584,6.10737 0.96197,-0.006 2.89165,-3.77678 3.96087,-7.74033 0.45565,-1.68908 1.913,-4.67216 3.23855,-6.62907 l 2.4101,-3.55801 2.27879,2.75879 c 1.25333,1.51734 2.93128,2.98734 3.72877,3.26667 1.36989,0.47984 1.42698,0.76055 1.03367,5.08262 -0.22897,2.51609 -0.2288,5.12482 3.6e-4,5.79717 0.39078,1.1465 0.49277,1.14491 1.64161,-0.0256 1.42599,-1.45291 1.85377,-1.21061 6.64969,3.76641 3.76432,3.90647 3.92604,5.50628 0.49055,4.85282 -3.90906,-0.74353 -20.18057,0.96238 -27.87149,2.92206 -10.22477,2.60533 -10.196,2.59943 -10.58057,2.16646 z m 27.27538,-11.72094 c 0.23807,-1.06793 0.0999,-3.75687 -0.30717,-5.97543 -0.40702,-2.21856 -0.74003,-4.7614 -0.74003,-5.65076 0,-2.43561 -1.14947,-1.14195 -1.94656,2.19074 -0.57888,2.42032 -0.49688,3.69108 0.46165,7.15398 1.28849,4.65493 1.88348,5.19103 2.53211,2.28147 z m -38.75166,-0.16819 c 1.10345,-2.32127 0.69122,-7.9568 -0.58202,-7.9568 -1.03065,0 -1.93619,3.8003 -1.55128,6.51028 0.44292,3.11848 1.1202,3.57772 2.1333,1.44652 z m -26.77581,-9.93418 c -0.0181,-9.05382 0.19087,-13.12263 0.67385,-13.12263 0.38503,0 3.15458,1.50634 6.15457,3.34742 4.56498,2.8015 5.64915,3.21059 6.64785,2.5084 1.42248,-1.00014 -7.13557,12.5292 -10.85066,17.15372 l -2.59941,3.23571 z m 74.69979,2.87619 c -2.27313,-3.8559 -4.76398,-7.67416 -5.53523,-8.48503 l -1.40227,-1.47431 5.70378,-3.43126 5.70379,-3.43127 v 11.91629 c 0,6.55397 -0.0759,11.9163 -0.16856,11.9163 -0.0927,0 -2.02838,-3.15483 -4.30151,-7.01072 z m -27.11052,-9.48824 c -1.84347,-2.12544 -2.13498,-2.74115 -1.16224,-2.45476 3.15227,0.92807 9.78831,-6.1158 13.72532,-14.56883 2.29381,-4.92496 7.52131,-19.10076 7.52131,-20.39609 0,-0.91199 -14.41018,9.34096 -17.35701,12.34962 -2.21983,2.26642 -2.34758,2.64869 -2.65687,7.95055 l -0.32491,5.56965 3.04933,-3.77203 c 1.67713,-2.07462 3.80134,-4.74275 4.72045,-5.92918 0.91912,-1.18643 1.6802,-1.91726 1.6913,-1.62407 0.0111,0.29319 -2.46184,3.98119 -5.49542,8.19556 -3.03358,4.21436 -5.86515,8.42102 -6.29238,9.34812 l -0.77678,1.68565 -1.21208,-1.55599 c -0.66665,-0.85579 -0.86545,-1.32827 -0.44179,-1.04994 1.05578,0.69359 2.64096,-2.216 3.74013,-6.86504 1.17343,-4.96306 1.14655,-12.68871 -0.0646,-18.56048 -0.88387,-4.28515 -5.80838,-21.84926 -6.51847,-23.24923 -0.39863,-0.78592 -5.59532,17.08317 -6.93302,23.83956 -1.17893,5.95446 -1.03185,18.23718 0.23547,19.66398 0.57578,0.64823 -0.17672,1.48827 -3.2228,3.59768 -4.57379,3.16735 -5.40382,3.34356 -5.68591,1.20707 -0.11225,-0.85015 -0.97388,-2.19031 -1.91473,-2.97815 -1.68596,-1.41177 -1.84252,-1.41465 -10.85752,-0.19963 -5.03079,0.67804 -9.64984,1.39287 -10.26457,1.58851 -1.03472,0.3293 -1.11696,-0.59531 -1.10791,-12.45585 0.005,-7.04637 0.22093,-13.1399 0.47901,-13.54121 1.20053,-1.86681 37.34505,-24.79656 39.0872,-24.79656 1.17734,0 32.48749,19.4769 36.75791,22.86575 l 2.86215,2.27129 v 12.85214 12.85213 l -3.35306,-0.2951 c -1.84418,-0.16231 -5.27625,-0.60017 -7.6268,-0.97302 -2.35057,-0.37286 -5.79943,-0.67417 -7.66414,-0.66959 -3.2166,0.008 -3.55195,0.1922 -6.54226,3.59524 -2.3891,2.71885 -2.86276,3.58691 -1.9572,3.58691 0.65707,0 1.9128,-0.72804 2.79051,-1.61786 0.87771,-0.88982 0.20717,0.40447 -1.49008,2.87619 -1.69724,2.47173 -3.12888,4.49405 -3.18141,4.49405 -0.0525,0 -1.2028,-1.27667 -2.55615,-2.83704 z m -18.57931,-8.22235 1.89235,-1.70462 -3.96805,-5.8454 c -2.18243,-3.21496 -3.95849,-6.08645 -3.9468,-6.38109 0.0117,-0.29463 0.58447,0.22536 1.27285,1.15555 0.68838,0.93019 2.71588,3.49501 4.50554,5.69961 l 3.25395,4.00836 -0.38661,-3.18294 c -0.21263,-1.75062 -0.51213,-4.47723 -0.66556,-6.05914 -0.21877,-2.2557 -0.79036,-3.34156 -2.64948,-5.03333 -3.61309,-3.28786 -16.84814,-12.5834 -16.84814,-11.83317 0,1.30591 5.97077,17.6619 7.74493,21.21602 2.16983,4.34676 6.11123,9.67332 7.1541,9.66835 0.41172,-0.002 1.60013,-0.77065 2.64092,-1.7082 z m 32.9156,4.6007 c -1.49,-1.30028 -1.50362,-1.36655 -0.20385,-0.99174 0.76606,0.22092 1.54741,0.85514 1.73632,1.40938 0.43411,1.27365 0.39265,1.26235 -1.53247,-0.41764 z m -41.98091,-2.66818 c 0.62141,-0.1823 1.48363,-0.17032 1.91603,0.0267 0.4324,0.19697 -0.076,0.34613 -1.12984,0.33147 -1.05382,-0.0147 -1.40761,-0.1758 -0.78619,-0.35811 z m 37.39041,0.007 c 0.46104,-0.20771 1.01191,-0.18217 1.22414,0.0567 0.21222,0.23893 -0.165,0.40888 -0.83827,0.37766 -0.74403,-0.0345 -0.89536,-0.20489 -0.38587,-0.43442 z m -18.08256,-3.10413 c -1.00963,-1.18643 -1.4945,-2.15715 -1.07751,-2.15715 0.54448,0 0.75817,-2.52133 0.75817,-8.94566 0,-5.18815 0.26827,-9.13233 0.63867,-9.39006 0.41485,-0.28865 0.63868,3.30015 0.63868,10.23995 0,7.35131 0.23909,10.95352 0.76642,11.5472 0.42152,0.47458 0.619,0.86286 0.43883,0.86286 -0.18018,0 -1.15364,-0.97071 -2.16326,-2.15714 z m -4.27116,-1.92929 c 0.46104,-0.20771 1.01191,-0.18217 1.22413,0.0567 0.21223,0.23894 -0.16499,0.40888 -0.83826,0.37766 -0.74403,-0.0345 -0.89536,-0.20488 -0.38587,-0.43442 z"
         id="path332" /><text
         xml:space="preserve"
         style="font-style:normal;font-variant:normal;font-weight:normal;font-stretch:normal;font-size:16px;line-height:0;font-family:aakar;-inkscape-font-specification:'aakar, Normal';font-variant-ligatures:normal;font-variant-caps:normal;font-variant-numeric:normal;font-variant-east-asian:normal;fill:#000000;fill-opacity:1;stroke:none"
         x="289.27689"
         y="278.33084"
         id="text1229"><tspan
           id="tspan1227"
           x="289.27689"
           y="278.33084"
           style="line-height:1.25" /><tspan
           id="tspan1231"
           x="289.77689"
           y="298.33084"
           style="font-style:normal;font-variant:normal;font-weight:normal;font-stretch:normal;font-size:16px;line-height:1.25;font-family:aakar;-inkscape-font-specification:'aakar, Normal';font-variant-ligatures:normal;font-variant-caps:normal;font-variant-numeric:normal;font-variant-east-asian:normal;text-align:center;letter-spacing:1px;text-anchor:middle;fill:#2d4312;fill-opacity:1">PREMIER FARMERS MART LTD</tspan></text><text
         xml:space="preserve"
         style="font-style:normal;font-variant:normal;font-weight:normal;font-stretch:normal;font-size:10.6667px;line-height:1.25;font-family:AnjaliOldLipi;-inkscape-font-specification:'AnjaliOldLipi, Normal';font-variant-ligatures:normal;font-variant-caps:normal;font-variant-numeric:normal;font-variant-east-asian:normal;letter-spacing:1px;fill:#000000;fill-opacity:1;stroke:none"
         x="208.9277"
         y="315.33676"
         id="text1287"><tspan
           id="tspan1285"
           x="208.9277"
           y="315.33676"
           style="font-style:normal;font-variant:normal;font-weight:normal;font-stretch:normal;font-size:10.6667px;font-family:AnjaliOldLipi;-inkscape-font-specification:'AnjaliOldLipi, Normal';font-variant-ligatures:normal;font-variant-caps:normal;font-variant-numeric:normal;font-variant-east-asian:normal;fill:#93a483;fill-opacity:1">CONNECTING AGRI NEEDS</tspan></text></g></g></svg>
