<?xml version="1.0" encoding="UTF-8" standalone="no"?>
<!-- Created with Inkscape (http://www.inkscape.org/) -->

<svg
   version="1.1"
   id="svg148"
   width="36.941727"
   height="56.828766"
   viewBox="0 0 36.941727 56.828766"
   xml:space="preserve"
   sodipodi:docname="premierfarmersmart-logo.svg"
   inkscape:export-filename="../20549857/premierfarmersmart-logo-nav.svg"
   inkscape:export-xdpi="96"
   inkscape:export-ydpi="96"
   xmlns:inkscape="http://www.inkscape.org/namespaces/inkscape"
   xmlns:sodipodi="http://sodipodi.sourceforge.net/DTD/sodipodi-0.dtd"
   xmlns="http://www.w3.org/2000/svg"
   xmlns:svg="http://www.w3.org/2000/svg"><sodipodi:namedview
     id="namedview13"
     pagecolor="#ffffff"
     bordercolor="#999999"
     borderopacity="1"
     inkscape:showpageshadow="0"
     inkscape:pageopacity="0"
     inkscape:pagecheckerboard="0"
     inkscape:deskcolor="#d1d1d1"
     showgrid="false" /><defs
     id="defs152" /><g
     id="g3567"
     transform="translate(-234.64553,-346.92892)"><path
       style="fill:#2d4312;fill-opacity:1;stroke-width:1"
       d="m 243.91264,398.23167 -9.1243,-5.52601 -0.0714,-17.3095 -0.0714,-17.3095 1.17818,-0.77424 c 3.24396,-2.13179 16.99763,-10.37649 17.32158,-10.38349 0.30445,-0.007 7.67794,4.39875 16.78185,10.02643 l 1.6601,1.02621 v 17.35002 17.35002 l -4.28859,2.60541 c -8.62228,5.23823 -14.01742,8.47066 -14.13808,8.47066 -0.0679,0 -4.22949,-2.4867 -9.24786,-5.52601 z m 15.57659,1.24878 c 3.306,-2.01991 7.28387,-4.43472 8.8397,-5.36624 l 2.82879,-1.69366 0.0532,-6.34879 c 0.14394,-17.16409 0.16007,-26.95761 0.0452,-27.44543 -0.0739,-0.31359 -1.12941,-1.07975 -2.52641,-1.83375 -1.31975,-0.71231 -5.36301,-3.09631 -8.98501,-5.29779 l -6.58547,-4.00269 -5.3119,3.24526 c -2.92154,1.78489 -6.61922,3.98058 -8.21707,4.8793 -1.59784,0.89872 -3.31139,1.90685 -3.80788,2.24028 l -0.90271,0.60625 0.0256,16.6976 c 0.0141,9.18368 0.10903,16.83025 0.21101,16.99237 0.10197,0.16212 1.99076,1.40018 4.1973,2.75124 2.20655,1.35105 6.12853,3.75551 8.71551,5.34325 2.58699,1.58773 4.86237,2.89097 5.05641,2.89609 0.19404,0.005 3.0577,-1.64337 6.3637,-3.66329 z m -7.40821,1.82263 c -0.53261,-0.35112 -1.02155,-0.69213 -1.08653,-0.7578 -0.31286,-0.31619 5.33962,-4.393 8.14195,-5.87233 2.46881,-1.30328 8.22097,-3.47638 10.02975,-3.78913 2.35675,-0.40751 1.24375,0.61849 -4.28858,3.95339 -3.00547,1.81169 -6.85972,4.15181 -8.565,5.20026 -1.70528,1.04845 -3.13711,1.90576 -3.18185,1.90514 -0.0447,-4.2e-4 -0.51712,-0.28841 -1.04974,-0.63953 z m -4.34528,-2.64973 c -1.24858,-0.78031 -2.34322,-1.49858 -2.43252,-1.59616 -0.43675,-0.47722 6.08128,-4.47273 9.95966,-6.10521 4.23991,-1.78465 11.19455,-3.51977 14.10785,-3.51977 0.94723,0 0.97136,0.0298 0.97136,1.19764 0,1.15616 -0.0407,1.20897 -1.1759,1.52455 -7.12091,1.97967 -13.75579,5.30076 -17.76963,8.89461 -0.66391,0.59443 -1.2484,1.0678 -1.29888,1.05194 -0.0505,-0.0159 -1.11335,-0.66729 -2.36194,-1.4476 z m -5.98011,-3.63492 c -1.34197,-0.80314 -2.57186,-1.6044 -2.7331,-1.78058 -0.20643,-0.22556 0.67918,-0.85179 2.9933,-2.11665 8.42043,-4.60244 16.97647,-7.00858 24.9369,-7.01276 l 3.38936,-0.002 v 1.1956 c 0,1.34311 0.42157,1.15084 -4.0119,1.82972 -6.80234,1.04163 -14.97996,4.37301 -20.50317,8.35254 -0.77663,0.55957 -1.46142,1.01217 -1.52176,1.00578 -0.0603,-0.006 -1.20767,-0.66873 -2.54963,-1.47187 z m -4.96133,-2.92196 c -0.8215,-0.48697 -1.03147,-1.3387 -0.33004,-1.3387 0.73954,0 2.88935,0.66542 2.88935,0.89433 0,0.22205 -1.25038,0.92951 -1.60394,0.90751 -0.10698,-0.007 -0.53689,-0.21507 -0.95537,-0.46314 z m 2.00594,-1.49339 c -0.68479,-0.21674 -1.58746,-0.47725 -2.00594,-0.57893 -0.6743,-0.16383 -0.76089,-0.32182 -0.76089,-1.3884 0,-1.18952 0.0121,-1.20352 1.03757,-1.20179 1.16579,0.002 7.23059,1.07144 7.4528,1.31425 0.18347,0.20047 -3.65545,2.32237 -4.1257,2.28041 -0.19402,-0.0173 -0.91304,-0.2088 -1.59784,-0.42554 z m 4.9803,-2.72887 c -0.83697,-0.2315 -2.51782,-0.56774 -3.73522,-0.74718 -4.38627,-0.64654 -4.01191,-0.47241 -4.01191,-1.86605 v -1.23685 l 4.77278,0.1717 c 4.23661,0.15242 8.81016,0.83888 10.72147,1.60923 0.43264,0.17437 -4.30257,2.22292 -5.53366,2.39396 -0.38044,0.0529 -1.3765,-0.0933 -2.21346,-0.32481 z m 8.83549,-2.37678 c -0.4041,-0.44154 -6.92856,-1.69776 -10.55163,-2.03161 l -4.06794,-0.37484 1.0646,-0.85547 c 0.61062,-0.49067 1.25062,-1.36346 1.50082,-2.04671 0.5637,-1.53937 1.17489,-1.89836 2.4844,-1.45921 0.55576,0.18637 1.07594,0.26731 1.15597,0.17987 0.08,-0.0874 0.28022,-0.9947 0.44488,-2.01612 0.38034,-2.35932 1.13416,-3.49064 2.14422,-3.21805 0.39842,0.10752 1.05937,0.54357 1.46877,0.96901 0.4308,0.44767 0.92177,0.69912 1.16552,0.59692 0.23164,-0.0971 0.80115,-0.99909 1.26557,-2.00437 0.84287,-1.82444 1.68346,-2.39873 2.03711,-1.39173 0.22797,0.64912 -0.10847,2.62205 -0.6098,3.57594 -0.3824,0.72762 -0.38915,0.92609 -0.0514,1.51162 0.77516,1.34374 1.12467,2.21075 1.41996,3.52245 0.34584,1.53627 0.60142,1.31495 1.09906,-0.95167 0.30249,-1.37774 0.28197,-1.47943 -0.52229,-2.589 -0.59274,-0.81775 -0.76329,-1.28248 -0.58419,-1.5918 0.17448,-0.30133 0.25427,-0.31963 0.25719,-0.059 0.002,0.20785 0.14327,0.37791 0.31319,0.37791 0.17273,0 0.24515,-0.2666 0.16425,-0.60465 -0.0796,-0.33255 -0.0571,-0.60464 0.0499,-0.60464 0.45051,0 2.22206,2.33953 2.40373,3.17439 0.24187,1.11151 1.14415,2.57043 1.58809,2.56784 0.41673,-0.003 1.25269,-1.58794 1.71589,-3.25442 0.1974,-0.71017 0.82874,-1.96441 1.40298,-2.78719 l 1.04409,-1.49596 0.98719,1.15993 c 0.54296,0.63797 1.26987,1.25603 1.61535,1.37347 0.59346,0.20175 0.61819,0.31977 0.4478,2.13699 -0.0992,1.05789 -0.0991,2.15473 1.6e-4,2.43741 0.16929,0.48205 0.21347,0.48138 0.71116,-0.0108 0.61776,-0.61087 0.80308,-0.509 2.88073,1.58359 1.63075,1.64247 1.70081,2.31511 0.21251,2.04036 -1.69345,-0.31261 -8.74247,0.40463 -12.07426,1.22858 -4.4295,1.09541 -4.41703,1.09293 -4.58363,0.91089 z m 11.81602,-4.92807 c 0.10313,-0.44901 0.0433,-1.57957 -0.13307,-2.51236 -0.17633,-0.9328 -0.32059,-2.00193 -0.32059,-2.37586 0,-1.02405 -0.49797,-0.48013 -0.84328,0.92109 -0.25077,1.01763 -0.21525,1.55192 0.2,3.00789 0.55819,1.95716 0.81594,2.18257 1.09694,0.95924 z m -16.78769,-0.0707 c 0.47803,-0.97598 0.29945,-3.34543 -0.25213,-3.34543 -0.44649,0 -0.83879,1.59783 -0.67204,2.73724 0.19188,1.31116 0.48529,1.50425 0.92417,0.60819 z m -11.5996,-4.17682 c -0.008,-3.80668 0.0827,-5.51741 0.29192,-5.51741 0.1668,0 1.3666,0.63334 2.66623,1.40742 1.97761,1.17789 2.44728,1.3499 2.87993,1.05466 0.61624,-0.42051 -3.09121,5.2679 -4.70063,7.21227 l -1.1261,1.36046 z m 32.36085,1.20929 c -0.98475,-1.62121 -2.06382,-3.2266 -2.39793,-3.56753 l -0.60748,-0.61987 2.47094,-1.44267 2.47095,-1.44268 v 5.0102 c 0,2.75561 -0.0329,5.0102 -0.073,5.0102 -0.0402,0 -0.87872,-1.32644 -1.86346,-2.94765 z M 256.661,373.5418 c -0.79861,-0.89364 -0.92489,-1.15251 -0.50349,-1.0321 1.3656,0.39021 4.24041,-2.57139 5.94597,-6.12546 0.99371,-2.0707 3.25832,-8.0309 3.25832,-8.57553 0,-0.38344 -6.24266,3.92741 -7.51926,5.1924 -0.96166,0.95291 -1.017,1.11364 -1.15099,3.3428 l -0.14076,2.34176 1.32101,-1.58595 c 0.72655,-0.87227 1.64679,-1.99409 2.04496,-2.49292 0.39817,-0.49883 0.72788,-0.80611 0.73269,-0.68284 0.005,0.12327 -1.0665,1.67389 -2.38068,3.44582 -1.31419,1.77193 -2.54086,3.54061 -2.72594,3.93041 l -0.33651,0.70873 -0.52509,-0.65421 c -0.2888,-0.35982 -0.37492,-0.55847 -0.19138,-0.44145 0.45737,0.29162 1.14409,-0.93171 1.62026,-2.8864 0.50835,-2.08672 0.4967,-5.33496 -0.028,-7.80375 -0.3829,-1.80169 -2.51626,-9.18651 -2.82388,-9.77513 -0.17269,-0.33044 -2.42396,7.18262 -3.00347,10.02334 -0.51072,2.50355 -0.44701,7.66781 0.10201,8.26771 0.24944,0.27255 -0.0766,0.62574 -1.39616,1.51264 -1.98142,1.33171 -2.341,1.4058 -2.4632,0.50751 -0.0486,-0.35744 -0.4219,-0.92091 -0.82948,-1.25216 -0.73038,-0.59358 -0.79821,-0.59479 -4.70361,-0.0839 -2.1794,0.28508 -4.18043,0.58563 -4.44674,0.66789 -0.44825,0.13845 -0.48388,-0.2503 -0.47996,-5.23706 0.002,-2.96264 0.0957,-5.52467 0.20752,-5.6934 0.52008,-0.7849 16.17832,-10.4257 16.93304,-10.4257 0.51004,0 14.07397,8.18905 15.92397,9.61389 l 1.23992,0.95497 v 5.40367 5.40368 l -1.45259,-0.12408 c -0.79892,-0.0682 -2.28573,-0.25234 -3.30402,-0.4091 -1.0183,-0.15677 -2.51238,-0.28346 -3.3202,-0.28153 -1.39347,0.003 -1.53875,0.0808 -2.83418,1.51162 -1.03499,1.14313 -1.24019,1.50811 -0.84789,1.50811 0.28465,0 0.82865,-0.3061 1.20889,-0.68023 0.38023,-0.37412 0.0897,0.17006 -0.64552,1.20929 -0.73527,1.03924 -1.35547,1.88953 -1.37823,1.88953 -0.0227,0 -0.52107,-0.53678 -1.10735,-1.19284 z m -8.04878,-3.45708 0.81979,-0.71671 -1.719,-2.45769 c -0.94546,-1.35173 -1.71487,-2.55905 -1.70981,-2.68293 0.005,-0.12388 0.2532,0.0947 0.55142,0.48585 0.29821,0.3911 1.17655,1.46948 1.95185,2.3964 l 1.40965,1.68531 -0.16748,-1.33826 c -0.0921,-0.73605 -0.22186,-1.88245 -0.28833,-2.54757 -0.0948,-0.9484 -0.34239,-1.40495 -1.14779,-2.11626 -1.56523,-1.38238 -7.29881,-5.29068 -7.29881,-4.97525 0,0.54907 2.58661,7.42594 3.35519,8.92027 0.94,1.82759 2.64746,4.06714 3.09925,4.06505 0.17836,-8.4e-4 0.69319,-0.32402 1.14407,-0.71821 z m 14.25944,1.93436 c -0.64549,-0.5467 -0.65139,-0.57456 -0.0883,-0.41697 0.33186,0.0929 0.67035,0.35954 0.75219,0.59257 0.18806,0.5355 0.1701,0.53075 -0.66388,-0.1756 z m -18.18664,-1.12183 c 0.2692,-0.0766 0.64273,-0.0716 0.83005,0.0112 0.18732,0.0828 -0.0329,0.14553 -0.48946,0.13937 -0.45653,-0.006 -0.60979,-0.0739 -0.34059,-0.15057 z m 16.19798,0.003 c 0.19973,-0.0873 0.43837,-0.0766 0.53031,0.0238 0.0919,0.10046 -0.0715,0.17191 -0.36315,0.15879 -0.32232,-0.0145 -0.38788,-0.0862 -0.16716,-0.18266 z m -7.83358,-1.30513 c -0.43739,-0.49883 -0.64744,-0.90697 -0.4668,-0.90697 0.23588,0 0.32845,-1.06009 0.32845,-3.7612 0,-2.18136 0.11622,-3.83969 0.27668,-3.94805 0.17972,-0.12136 0.27669,1.38755 0.27669,4.30538 0,3.09086 0.10357,4.60541 0.33202,4.85502 0.18261,0.19954 0.26816,0.36279 0.19011,0.36279 -0.0781,0 -0.49978,-0.40814 -0.93715,-0.90697 z m -1.85032,-0.81117 c 0.19973,-0.0873 0.43837,-0.0766 0.53031,0.0238 0.0919,0.10046 -0.0715,0.17191 -0.36315,0.15879 -0.32232,-0.0145 -0.38788,-0.0861 -0.16716,-0.18265 z"
       id="path6574"
       sodipodi:nodetypes="ccccscscccssscsscsssscssscsssscsssssssscsssssscssscssccssscccssscssssssssssscsssscscsssssssssssssssscsssscsscssssssssccsssssssssscssssccsscccsssssssssscsscsscssssssssssssccssccccscsssssssscsssscsssssssssssssscsccsccssssssssccscc"
       inkscape:export-filename="../e66efb37/premierfarmersmart-mobile-logo.svg"
       inkscape:export-xdpi="96"
       inkscape:export-ydpi="96" /></g></svg>
