<?xml version="1.0" encoding="UTF-8" standalone="no"?>
<svg
   data-name="Layer 1"
   width="311.56595"
   height="263.52664"
   viewBox="0 0 311.56596 263.52663"
   version="1.1"
   id="svg254"
   sodipodi:docname="undraw_active_support_re_b7sj.svg"
   inkscape:export-filename="../f4c02c28/support.svg"
   inkscape:export-xdpi="96"
   inkscape:export-ydpi="96"
   xmlns:inkscape="http://www.inkscape.org/namespaces/inkscape"
   xmlns:sodipodi="http://sodipodi.sourceforge.net/DTD/sodipodi-0.dtd"
   xmlns="http://www.w3.org/2000/svg"
   xmlns:svg="http://www.w3.org/2000/svg">
  <defs
     id="defs258" />
  <sodipodi:namedview
     id="namedview256"
     pagecolor="#ffffff"
     bordercolor="#999999"
     borderopacity="1"
     inkscape:showpageshadow="0"
     inkscape:pageopacity="0"
     inkscape:pagecheckerboard="0"
     inkscape:deskcolor="#d1d1d1"
     showgrid="false" />
  <g
     id="g543"
     transform="translate(-151.9342,-127.26165)">
    <path
       d="m 318.57335,164.2764 c 10.33602,-7.63539 24.888,-10.56245 36.27425,-4.60577 a 59.206688,59.206688 0 0 0 -29.46308,28.00535 c -2.37677,4.83698 -4.51666,10.46434 -9.42055,12.69985 -3.05129,1.39105 -6.65256,1.12244 -9.81216,-9.6e-4 -3.15973,-1.1233 -5.97036,-3.03144 -8.74188,-4.91943 l -0.83113,-0.10005 c 4.93223,-11.86615 11.65852,-23.44381 21.99455,-31.0792 z"
       fill="#f0f0f0"
       id="path182"
       style="stroke-width:1" />
    <path
       d="m 354.75596,159.92422 a 50.605796,50.605796 0 0 0 -29.31135,10.50129 21.792727,21.792727 0 0 0 -4.77533,4.88038 12.499011,12.499011 0 0 0 -2.06069,6.24709 c -0.15064,2.07614 -0.0643,4.21726 -0.717,6.22063 a 7.6531659,7.6531659 0 0 1 -4.27118,4.57509 c -2.44997,1.10731 -5.1517,1.26826 -7.79924,1.33386 -2.93959,0.0728 -5.99406,0.10189 -8.66745,1.48604 -0.32391,0.16771 -0.5652,-0.34471 -0.24177,-0.51217 4.65124,-2.40816 10.08653,-0.83697 14.97511,-2.27021 2.28111,-0.66878 4.37448,-2.02905 5.29039,-4.30494 0.80092,-1.99016 0.71377,-4.19817 0.84812,-6.30164 a 13.337443,13.337443 0 0 1 1.78732,-6.18337 20.146718,20.146718 0 0 1 4.57008,-5.04599 49.096638,49.096638 0 0 1 13.28515,-7.67922 51.503122,51.503122 0 0 1 17.13755,-3.51112 c 0.36338,-0.0113 0.31127,0.55305 -0.0497,0.56427 z"
       fill="#ffffff"
       id="path184"
       style="stroke-width:1" />
    <path
       d="m 328.03404,168.17486 a 7.5924886,7.5924886 0 0 1 1.78371,-9.66831 c 0.28319,-0.22933 0.65286,0.19997 0.3693,0.4296 a 7.0304699,7.0304699 0 0 0 -1.64084,8.99692 c 0.18314,0.31508 -0.33007,0.55505 -0.51217,0.24178 z"
       fill="#ffffff"
       id="path186"
       style="stroke-width:1" />
    <path
       d="m 318.54632,180.49024 a 14.63389,14.63389 0 0 0 10.61103,-1.06916 c 0.3245,-0.16655 0.56589,0.34581 0.24178,0.51217 a 15.221449,15.221449 0 0 1 -11.044,1.09011 c -0.35139,-0.0993 -0.15829,-0.63189 0.1912,-0.53312 z"
       fill="#ffffff"
       id="path188"
       style="stroke-width:1" />
    <path
       d="m 343.11171,161.48249 a 4.2977027,4.2977027 0 0 0 2.95559,2.80977 c 0.35247,0.0948 0.15899,0.62731 -0.1912,0.53312 a 4.8159461,4.8159461 0 0 1 -3.27656,-3.10111 0.29269884,0.29269884 0 0 1 0.13519,-0.37697 0.28461585,0.28461585 0 0 1 0.37697,0.13519 z"
       fill="#ffffff"
       id="path190"
       style="stroke-width:1" />
    <path
       d="m 363.87533,202.23254 c -0.2218,-0.0529 -0.44355,-0.10588 -0.66895,-0.15569 a 56.59845,56.59845 0 0 0 -9.0808,-1.35341 c -0.23622,-0.0195 -0.47591,-0.0358 -0.71222,-0.0486 a 59.667323,59.667323 0 0 0 -21.78509,2.82696 57.944217,57.944217 0 0 0 -8.13914,3.35655 c -3.62372,1.8282 -7.40734,4.09876 -11.30856,4.60809 a 9.9406996,9.9406996 0 0 1 -1.22646,0.0972 l -14.43292,-15.18639 c -0.0155,-0.051 -0.0346,-0.0988 -0.0502,-0.14998 l -0.60399,-0.58 c 0.13057,-0.0777 0.26765,-0.15552 0.39821,-0.23324 0.0756,-0.0454 0.15432,-0.0874 0.22987,-0.13281 0.0514,-0.0292 0.10295,-0.0582 0.14765,-0.0875 0.0171,-0.01 0.0343,-0.0194 0.0479,-0.0259 0.0447,-0.0293 0.0893,-0.0517 0.13057,-0.0777 q 1.14759,-0.65549 2.30841,-1.29713 c 0.003,-0.003 0.003,-0.003 0.0101,-0.003 5.90484,-3.24427 12.1324,-6.02409 18.58391,-7.7703 0.19412,-0.0525 0.39155,-0.10841 0.59224,-0.15395 a 55.29196,55.29196 0 0 1 8.88198,-1.58965 48.881112,48.881112 0 0 1 4.9416,-0.20561 40.647606,40.647606 0 0 1 12.53023,2.12416 c 8.05236,2.71367 15.14721,7.97242 18.92275,15.46296 0.0965,0.19169 0.18986,0.38014 0.28284,0.57512 z"
       fill="#f0f0f0"
       id="path192"
       style="stroke-width:1" />
    <path
       d="m 363.65014,202.38159 a 50.605781,50.605781 0 0 0 -29.72598,-9.26277 21.792522,21.792522 0 0 0 -6.75117,1.02164 12.498958,12.498958 0 0 0 -5.40652,3.74728 c -1.37025,1.56699 -2.59041,3.32853 -4.31772,4.53515 a 7.6531851,7.6531851 0 0 1 -6.16481,1.08141 c -2.62284,-0.59093 -4.87693,-2.08904 -7.03034,-3.63068 -2.39095,-1.71169 -4.84726,-3.52748 -7.81517,-4.03187 -0.35959,-0.0611 -0.24374,-0.61552 0.11532,-0.55448 5.16365,0.87756 8.55745,5.40451 13.32362,7.20341 2.22398,0.8394 4.7144,1.01366 6.81594,-0.25208 1.83771,-1.10682 3.0975,-2.92227 4.47122,-4.52087 a 13.337443,13.337443 0 0 1 5.14989,-3.861 20.146651,20.146651 0 0 1 6.68699,-1.27742 49.096547,49.096547 0 0 1 15.23087,1.86714 51.503122,51.503122 0 0 1 15.79731,7.51456 c 0.29693,0.20978 -0.0845,0.629 -0.37944,0.4206 z"
       fill="#ffffff"
       id="path194"
       style="stroke-width:1" />
    <path
       d="m 337.34672,192.88082 a 7.5924838,7.5924838 0 0 1 7.24519,-6.64568 c 0.36418,-0.0126 0.40088,0.55272 0.0362,0.56535 a 7.0304651,7.0304651 0 0 0 -6.7269,6.19565 c -0.0435,0.36184 -0.59772,0.24445 -0.55448,-0.11532 z"
       fill="#ffffff"
       id="path196"
       style="stroke-width:1" />
    <path
       d="m 322.3566,197.0017 a 14.633914,14.633914 0 0 0 9.11602,5.53491 c 0.35938,0.0624 0.24363,0.61681 -0.11531,0.55448 a 15.221449,15.221449 0 0 1 -9.47434,-5.77885 c -0.22077,-0.29086 0.25406,-0.59983 0.47363,-0.31056 z"
       fill="#ffffff"
       id="path198"
       style="stroke-width:1" />
    <path
       d="m 353.41467,196.61514 a 4.2977027,4.2977027 0 0 0 0.66819,4.02291 c 0.22435,0.28791 -0.25074,0.59659 -0.47363,0.31055 a 4.8159365,4.8159365 0 0 1 -0.74906,-4.44875 0.29270362,0.29270362 0 0 1 0.3349,-0.2196 0.28461585,0.28461585 0 0 1 0.2196,0.33491 z"
       fill="#ffffff"
       id="path200"
       style="stroke-width:1" />
    <path
       d="m 315.84617,175.63557 h -1.11846 v -30.64021 a 17.733709,17.733709 0 0 0 -17.7337,-17.73372 H 232.07856 A 17.733714,17.733714 0 0 0 214.3448,144.99531 V 313.0899 a 17.733724,17.733724 0 0 0 17.7337,17.73373 h 64.91542 a 17.733719,17.733719 0 0 0 17.73377,-17.73366 V 197.44579 h 1.11848 z"
       fill="#3f3d56"
       id="path202"
       style="stroke-width:1" />
    <path
       d="m 297.7095,131.87533 h -8.47361 a 6.2918922,6.2918922 0 0 1 -5.82543,8.66816 h -37.18922 a 6.2918683,6.2918683 0 0 1 -5.82542,-8.66817 h -7.91437 a 13.243349,13.243349 0 0 0 -13.24335,13.24333 v 167.84794 a 13.243344,13.243344 0 0 0 13.24333,13.24335 h 65.22807 a 13.243339,13.243339 0 0 0 13.24335,-13.24333 v 0 -167.84797 A 13.243334,13.243334 0 0 0 297.7095,131.87533 Z"
       fill="#ffffff"
       id="path204"
       style="stroke-width:1" />
    <path
       d="m 266.34882,272.29079 a 36.532997,36.532997 0 0 1 -36.56704,-36.56704 36.514417,36.514417 0 0 1 19.96049,-32.58338 36.641871,36.641871 0 0 1 28.39646,-2.03804 36.571638,36.571638 0 0 1 -11.78989,71.18847 z m 0,-71.70008 a 34.745547,34.745547 0 0 0 -15.95455,3.82681 35.133994,35.133994 0 1 0 36.5325,59.77854 34.820808,34.820808 0 0 0 5.23723,-4.64697 35.12061,35.12061 0 0 0 -25.81518,-58.95838 z"
       fill="#f0f0f0"
       id="path206"
       style="stroke-width:1" />
    <path
       d="m 187.11344,203.27168 a 6.9194782,6.9194782 0 0 1 5.74695,8.91898 l 12.14942,10.12009 -4.34921,8.88311 -16.95659,-14.5325 a 6.956963,6.956963 0 0 1 3.40945,-13.3897 z"
       fill="#ffb6b6"
       id="path208"
       style="fill:#552200;stroke-width:1" />
    <path
       d="m 300.58327,245.47492 c -0.24366,-2.61926 -1.25101,-7.32788 -2.10572,-9.06892 -2.6276,-6.87741 -19.60526,-12.5298 -21.88509,-13.25847 l -0.57839,-6.42911 -23.58937,-2.53818 -2.9924,8.22161 -8.46047,3.17392 a 4.1552585,4.1552585 0 0 0 -2.47613,2.53819 v 0 l -7.59059,2.19402 -7.49023,2.16534 -26.02232,-18.3361 -1.22861,0.80304 -8.2119,5.35839 -1.26689,0.82694 33.67523,30.38171 12.50924,-2.93492 9.40713,-2.21314 0.80289,3.25996 -2.07911,11.45289 a 35.839074,35.839074 0 0 0 46.34693,3.70451 l 5.34389,-4.74177 a 35.797062,35.797062 0 0 0 8.03522,-14.11535 z"
       fill="#e4e4e4"
       id="path210"
       style="stroke-width:1" />
    <circle
       cx="192.1985"
       cy="266.72604"
       r="16.984518"
       transform="rotate(-18.319171)"
       fill="#ffb6b6"
       id="circle212"
       style="fill:#552200;stroke-width:1" />
    <path
       d="m 252.87691,173.43586 a 11.463886,11.463886 0 0 1 6.94134,-4.62359 10.94473,10.94473 0 0 1 8.07107,1.48042 c 2.60606,-1.04978 5.41588,-1.74627 8.1765,-1.3922 2.76061,0.35407 5.46628,1.89607 6.74366,4.43646 a 12.128666,12.128666 0 0 0 0.9743,1.89226 c 1.12547,1.50146 3.2168,1.69622 5.06384,1.76834 q -1.40064,0.81698 -2.80187,1.63385 1.39618,0.65056 2.79265,1.30125 -1.90043,0.72541 -3.80058,1.45087 c 2.94853,2.59186 3.66179,7.20455 2.54515,11.07181 -1.05691,3.66142 -3.48032,6.74363 -6.18644,9.3824 -0.52799,-1.96897 0.0528,-4.10363 0.43955,-6.14212 0.40841,-2.15391 0.47385,-4.67246 -1.03425,-6.19314 -1.01735,-1.02579 -2.50971,-1.3357 -3.91683,-1.58458 a 190.09527,190.09527 0 0 0 -21.45571,-2.54761 6.0703676,6.0703676 0 0 0 -2.85982,0.29202 c -1.75081,0.778 -2.45425,2.91463 -2.9616,4.80913 a 38.13264,38.13264 0 0 1 0.5775,-9.94317 c 0.47996,-2.50647 1.23602,-5.01518 2.69154,-7.0924 z"
       fill="#2f2e41"
       id="path214"
       style="fill:#000000;stroke-width:1" />
    <path
       d="m 274.95283,289.51912 h -20.07602 a 2.629005,2.629005 0 0 1 0,-5.25801 h 20.07602 a 2.629005,2.629005 0 0 1 0,5.25801 z"
       fill="#2d4312"
       id="path216"
       style="stroke-width:1" />
    <path
       d="m 209.07558,148.8315 h -55.22084 a 1.9206395,1.9206395 0 0 1 0,-3.84127 h 55.22084 a 1.9206372,1.9206372 0 0 1 0,3.84127 z"
       fill="#2d4312"
       id="path218"
       style="stroke-width:1" />
    <path
       d="m 240.95831,161.09849 h -87.10357 a 1.920525,1.920525 0 0 1 0,-3.84105 h 87.10357 a 1.920525,1.920525 0 1 1 0,3.84105 z"
       fill="#2d4312"
       id="path220"
       style="stroke-width:1" />
    <path
       d="m 224.21977,172.65522 h -70.36502 a 1.92052,1.92052 0 1 1 0,-3.84104 h 70.36502 a 1.92052,1.92052 0 1 1 0,3.84104 z"
       fill="#cacaca"
       id="path222"
       style="stroke-width:1" />
    <path
       d="m 193.5331,184.16948 h -39.67835 a 1.92052,1.92052 0 1 1 0,-3.84104 h 39.67835 a 1.92052,1.92052 0 1 1 0,3.84104 z"
       fill="#cacaca"
       id="path224"
       style="stroke-width:1" />
    <path
       d="m 215.45227,195.68281 h -61.59754 a 1.920525,1.920525 0 0 1 0,-3.84105 h 61.59754 a 1.920525,1.920525 0 0 1 0,3.84105 z"
       fill="#cacaca"
       id="path226"
       style="stroke-width:1" />
    <polygon
       points="496.062,496.289 496.06,536.227 485.706,536.226 480.78,496.288 "
       fill="#9f616a"
       id="polygon228"
       transform="matrix(0.47800052,0,0,0.47800052,151.93422,127.26163)"
       style="stroke-width:2.09205" />
    <path
       d="m 390.9984,390.42787 -18.89573,-4.8e-4 v -0.239 a 7.3551374,7.3551374 0 0 1 7.35475,-7.35463 h 4.8e-4 l 3.45155,-2.61853 6.43982,2.61893 1.64949,7e-5 z"
       fill="#2f2e41"
       id="path230"
       style="stroke-width:1" />
    <path
       d="m 386.1674,293.85751 -2.18288,-26.61465 -1.7148,-9.98956 9.601,-2.12041 3.18601,13.67629 -2.77578,25.78688 a 4.4406918,4.4406918 0 1 1 -6.11354,-0.73856 z"
       fill="#9f616a"
       id="path232"
       style="fill:#552200;stroke-width:1" />
    <polygon
       points="441.062,496.289 441.06,536.227 430.706,536.226 425.78,496.288 "
       fill="#9f616a"
       id="polygon234"
       transform="matrix(0.47800052,0,0,0.47800052,151.93422,127.26163)"
       style="stroke-width:2.09205" />
    <path
       d="m 354.84042,299.8909 -2.19408,3.79537 c 0,0 -2.41085,0.6585 -1.62294,8.51732 0.78792,7.85881 0.82188,54.42019 4.63573,60.14967 l 0.69001,4.92001 7.20197,0.68823 0.1816,-4.36552 8.58745,-60.65076 c 0,0 5.05766,59.53975 9.24157,60.99664 l 1.51104,4.96047 6.60019,0.003 -0.38966,-5.84562 0.42554,-73.78383 z"
       fill="#2f2e41"
       id="path236"
       style="stroke-width:1" />
    <path
       d="m 352.42817,303.39705 -0.15175,-0.039 c 4.52863,-16.93862 3.2223,-38.87255 0.0247,-62.42534 l 6e-5,-0.0976 11.55972,-10.58806 h 10.03801 l 9.95104,6.42186 c 6.43321,3.21646 7.89517,10.02805 7.90922,10.09664 l 0.01,0.0485 -3.94172,13.75879 2.96946,39.79029 0.003,0.0461 -0.017,0.043 c -0.96102,2.43664 -3.53629,2.0897 -6.51817,1.68776 -2.97671,-0.40134 -13.94614,3.2687 -17.30967,3.2687 -6.57307,0 -14.05764,-1.8912 -14.52728,-2.01164 z"
       fill="#e4e4e4"
       id="path238"
       style="stroke-width:1" />
    <path
       d="m 381.76612,242.0317 4.31223,-1.87596 5.68148,6.96584 4.60514,22.32152 -15.77402,-2.39001 z"
       fill="#e4e4e4"
       id="path240"
       style="stroke-width:1" />
    <path
       d="m 315.439,283.19279 19.71322,-18.01372 6.85118,-7.46949 7.55247,6.29567 -8.8666,10.88919 -22.09309,13.58539 a 4.4406918,4.4406918 0 1 1 -3.1572,-5.28706 z"
       fill="#9f616a"
       id="path242"
       style="fill:#552200;stroke-width:1" />
    <path
       d="m 334.72299,265.37515 5.4599,-7.09033 c 0.0452,-0.10168 4.57515,-10.22443 8.50158,-14.62267 4.02779,-4.51182 7.19874,-2.20449 7.23041,-2.17962 l 0.0789,0.0595 0.21911,16.66143 -15.11809,18.06454 z"
       fill="#e4e4e4"
       id="path244"
       style="stroke-width:1" />
    <circle
       cx="-157.04617"
       cy="398.18188"
       r="9.2018595"
       transform="rotate(-80.78252)"
       fill="#9f616a"
       id="circle246"
       style="fill:#552200;stroke-width:1" />
    <path
       d="m 359.47181,217.434 c 0,0 -0.0737,-3.23493 -0.48268,-4.66633 -0.409,-1.4314 -1.22691,-2.65831 -0.81794,-2.65831 0.40897,0 0.61346,-1.02244 0.61346,-1.02244 0,0 0.40896,-0.20448 0.61345,0 0.20449,0.20448 0.40896,-1.4314 0.40896,-1.4314 0,0 0.2045,-0.61346 0.40897,-0.20448 0.20447,0.40898 0.20449,0.20448 0.40896,-0.40898 0.20448,-0.61345 1.22698,-1.02244 1.22698,-1.02244 0,0 3.88523,0.20448 4.49869,-0.61346 0.61345,-0.81793 7.56597,-0.20448 8.99738,0.81794 1.4314,1.02242 7.77046,4.70318 6.74802,7.77047 -1.02244,3.06729 -3.96562,10.12967 -4.70318,10.83775 -1.16629,1.11968 -1.9737,1.52339 -7.49229,2.62147 -1.08001,0.21491 -6.59265,-3.31058 -6.59265,-3.92404 0,-0.61346 0.66459,-2.55889 -0.40371,-2.82594 -1.61484,-0.40371 -1.7965,1.63786 -2.2055,1.0244 -0.409,-0.61345 -1.22692,-4.29421 -1.22692,-4.29421 z"
       fill="#2f2e41"
       id="path248"
       style="fill:#000000;stroke-width:1" />
    <path
       d="m 364.70837,390.42787 -18.89573,-4.8e-4 v -0.239 a 7.3551374,7.3551374 0 0 1 7.35475,-7.35463 h 4.8e-4 l 3.45155,-2.61853 6.43983,2.61893 1.64948,7e-5 z"
       fill="#2f2e41"
       id="path250"
       style="stroke-width:1" />
    <path
       d="M 462.93188,390.78829 H 153.52501 a 0.56914566,0.56914566 0 1 1 0,-1.13829 h 309.40687 a 0.56914566,0.56914566 0 0 1 0,1.13829 z"
       fill="#cacaca"
       id="path252"
       style="stroke-width:1" />
  </g>
</svg>
